<?xml version="1.0" encoding="utf-8"?>
<!-- Generator: Adobe Illustrator 23.0.3, SVG Export Plug-In . SVG Version: 6.00 Build 0)  -->
<svg version="1.1" id="Layer_1" xmlns="http://www.w3.org/2000/svg" xmlns:xlink="http://www.w3.org/1999/xlink" x="0px" y="0px"
	 viewBox="0 0 173 36" style="enable-background:new 0 0 173 36;" xml:space="preserve">
<style type="text/css">
	.st0{fill-rule:evenodd;clip-rule:evenodd;fill:#000000;}
	.st1{filter:url(#Adobe_OpacityMaskFilter);}
	.st2{mask:url(#mask-2_1_);fill-rule:evenodd;clip-rule:evenodd;fill:#000000;}
	.st3{filter:url(#Adobe_OpacityMaskFilter_1_);}
	.st4{mask:url(#mask-4_1_);fill-rule:evenodd;clip-rule:evenodd;fill:#000000;}
</style>
<title>Group 13</title>
<desc>Created with Sketch.</desc>
<g id="CURRENT">
	<g id="D_11" transform="translate(-1701.000000, -1012.000000)">
		<g id="Group-13" transform="translate(1701.000000, 1012.000000)">
			<path id="Fill-1" class="st0" d="M61.8,25.4h-5.1c0.3-3.2,1.4-4.7,3-4.7c1.7,0,2.2,1.6,2.2,3.3C61.9,24.6,61.8,25.1,61.8,25.4
				 M60,19c-4.4,0-8,3.1-8,8.7c0,5.6,3.2,8.3,7.3,8.3c2.9,0,5-1,6.2-3.3c0.1-0.3,0.1-0.6-0.1-0.8c-0.2-0.3-0.6-0.3-0.9-0.1
				c-1.1,0.8-2,1.1-3.4,1.1c-3.1,0-4.5-2.3-4.6-5.7h9.2C66,26.5,66,25.6,66,25C66,21.1,63.6,19,60,19"/>
			<path id="Fill-3" class="st0" d="M134.6,25.4h-5.3c0.3-3.2,1.5-4.7,3.1-4.7c1.8,0,2.2,1.6,2.2,3.3
				C134.7,24.6,134.7,25.1,134.6,25.4 M132.8,19c-2.5,0-4.9,1-6.4,2.8c-0.1-1.7-1.2-2.8-3.2-2.8c-2.5,0-3.9,1.9-4.7,3.8h-0.1l0.1-3
				c0-0.4-0.3-0.8-0.8-0.8l-5.4,1.8c-0.2,0.1-0.3,0.2-0.3,0.4c0,0.1,0,0.2,0.1,0.2l1.5,2.4v8.8c0,0.6-0.3,1.1-0.8,1.4
				c-0.6,0.3-1.2,0.3-1.8-0.1c-0.5-0.4-0.8-1-0.8-1.6V19.8c0-0.5-0.4-0.8-0.8-0.8l-5.4,1.7c-0.2,0.1-0.3,0.2-0.3,0.4
				c0,0.1,0,0.2,0.1,0.2l1.5,2.4v8.2c-1,0.8-1.9,1.1-2.9,1.1c-1.5,0-2.4-0.9-2.4-3.2v-10c0-0.5-0.4-0.8-0.8-0.8l-2,0.2
				c-0.9,0.1-1.8,0.1-2.7,0.2l-5,0v-3.3c0-0.6-0.5-1.1-1.1-1.1l-6,5.1c0,0.7,0.6,1.2,1.2,1.2h1v9.4c0,1.1,0.2,2,0.5,2.8l0,0
				c-1.3,0.9-2.1-0.4-2.1-1.4v-7.4c0-3.8-2.1-5.7-4.8-5.7c-2.5,0-4.4,1.1-5.7,3.2h-0.1l0.1-2.5c0-0.4-0.3-0.8-0.8-0.8l-5.3,1.7
				C66.2,20.8,66,21,66,21.3l1.1,1.7c0.3,0.5,0.5,1.1,0.5,1.8v9.2L66,34.6c0,0.6,0.5,1,1,1H73c0.7,0,1.4-0.4,1.7-1.1l-0.5-0.2
				c-1-0.3-1.7-1.2-1.7-2.3v-8.3c0.7-0.6,1.7-1.3,3-1.3c1.4,0,2.7,0.8,2.7,3.2v6.6c0,0.9-0.6,1.8-1.4,2.2l-0.1,0.1c0,0.6,0.5,1,1,1
				h6c0.7,0,1.7-0.6,2.1-1.2c0.9,1.1,2.3,1.6,3.9,1.6c2.3,0,4.1-0.9,5.2-2.5c0.1-0.2,0.1-0.4,0.1-0.6c-0.1-0.3-0.5-0.5-0.8-0.3
				c-0.8,0.4-1.4,0.5-2.2,0.5c-1.5,0-2.3-0.8-2.3-3v-8.8H93c0.4,0,0.7,0.2,0.9,0.5c0.3,0.5,0.8,1.3,0.8,1.3c0.2,0.4,0.4,0.8,0.4,1.3
				v5.9c0,4.2,2.5,5.7,5.2,5.7c2,0,3.9-0.8,5-2.7h0.2l0.1,0.4c0.2,1.2,1.3,2,2.5,1.8c0,0,5.5,0.1,5.6,0.1h6.3c0.8,0,1.4-0.5,1.7-1.2
				l-3.2-0.7v-9.3c0.9-1.1,1.8-2,2.7-2.4c0,1.5,1,2.6,2.6,2.6c0.4,0,0.8-0.1,1.1-0.3c-0.3,1-0.5,2.1-0.5,3.3c0,5.5,3.4,8.3,7.6,8.3
				c3,0,5.2-1,6.5-3.3c0.1-0.3,0.1-0.6-0.1-0.8c-0.2-0.3-0.6-0.3-0.9-0.1c-1.1,0.8-2.1,1.1-3.5,1.1c-3.2,0-4.7-2.3-4.8-5.7h9.6
				c0.1-0.7,0.2-1.5,0.2-2.1C139,21.1,136.5,19,132.8,19"/>
			<g id="Group-7" transform="translate(142.000000, 0.000000)">
				<g id="Clip-6">
				</g>
				<defs>
					<filter id="Adobe_OpacityMaskFilter" filterUnits="userSpaceOnUse" x="0.2" y="0.3" width="30.6" height="34.3">
						<feColorMatrix  type="matrix" values="1 0 0 0 0  0 1 0 0 0  0 0 1 0 0  0 0 0 1 0"/>
					</filter>
				</defs>
				<mask maskUnits="userSpaceOnUse" x="0.2" y="0.3" width="30.6" height="34.3" id="mask-2_1_">
					<g class="st1">
						<polygon id="path-1_1_" class="st0" points="0.2,0.3 30.8,0.3 30.8,34.6 0.2,34.6 						"/>
					</g>
				</mask>
				<path id="Fill-5" class="st2" d="M9.5,10.7h-2V2.1h2c2.5,0,3.9,1.3,3.9,4.2C13.4,9.6,11.9,10.7,9.5,10.7L9.5,10.7z M28.7,32.6
					l-6.9-10l5.8-7.8l2.2-0.6l0,0C29.6,13.5,29,13,28.2,13h-4.6c-0.7,0-1.4,0.5-1.5,1.3l1.4,0.5c0.5,0.2,0.7,0.7,0.4,1.1l-3.5,5
					l-4-6.4c-0.7-1.4-2.1-2.2-3.6-2.4v-0.2c2.9-0.3,5.9-2,5.9-5.7c0-4.5-3.7-5.9-7.5-5.9H0.8c-0.3,0-0.5,0.2-0.5,0.4
					c-0.1,0.4,0.1,0.9,0.6,1L1.4,2C2,2.2,2.5,2.8,2.5,3.5V20l-1.8,0.6c-0.4,0.1-0.5,0.6-0.3,0.9C0.7,21.8,1.1,22,1.6,22h6.9
					c0.4,0,0.8-0.2,1.1-0.5c0.3-0.3,0.2-0.8-0.2-0.9L7.5,20v-7.6c1.8,0,1.7,0.5,2.6,1.6l0.7,1h0l6.4,9.4L11,32.6l-2.3,0.9l0,0
					c0.2,0.6,0.7,1.1,1.4,1.1h5.2c0.7,0,1.3-0.5,1.4-1.1L15.3,33c-0.7-0.3-0.9-1.1-0.5-1.7l3.8-5.2l4.4,6.5l-2.7,0.8
					c0.2,0.7,0.8,1.2,1.5,1.2h7.6c0.7,0,1.3-0.5,1.5-1.1l0,0L28.7,32.6z"/>
			</g>
			<g id="Group-10" transform="translate(0.000000, 13.000000)">
				<g id="Clip-9">
				</g>
				<defs>
					<filter id="Adobe_OpacityMaskFilter_1_" filterUnits="userSpaceOnUse" x="0" y="0" width="23" height="22.6">
						<feColorMatrix  type="matrix" values="1 0 0 0 0  0 1 0 0 0  0 0 1 0 0  0 0 0 1 0"/>
					</filter>
				</defs>
				<mask maskUnits="userSpaceOnUse" x="0" y="0" width="23" height="22.6" id="mask-4_1_">
					<g class="st3">
						<polygon id="path-3_1_" class="st0" points="0,0 23,0 23,22.6 0,22.6 						"/>
					</g>
				</mask>
				<path id="Fill-8" class="st4" d="M6.8,14.2l1.8-5.3c1-3,1.5-4.8,1.5-4.8h0.2c0,0,0.5,1.8,1.5,4.8l1.6,5.3H6.8z M22.8,21.3
					l-1.6-0.9L13.6,0h-2.7C10,0,9.3,0.5,9,1.3L1.8,20.4l-1.8,1l0.1,0.3c0.1,0.5,0.6,0.9,1.1,0.9h4.6c0.8,0,1.4-0.5,1.5-1.3l0-0.1
					l-1.6-0.4c-0.7-0.2-1-0.9-0.8-1.5l0.7-2c0.2-0.6,0.8-1,1.4-1H14l1.1,3c0.3,0.8-0.2,1.6-0.9,1.8l-0.7,0.2
					c-0.2,0.1-0.4,0.3-0.3,0.5c0.1,0.6,0.6,1,1.1,1h7.6c0.5,0,1-0.4,1.1-0.9C23,21.6,23,21.4,22.8,21.3L22.8,21.3z"/>
			</g>
			<path id="Fill-11" class="st0" d="M32.8,32.5C32.2,32.8,31.5,33,31,33c-3.4,0-4.9-2-4.9-6c0-4.1,1.6-6.3,4.1-6.3
				c1,0,1.9,0.3,2.6,1.2V32.5z M54.1,20.9c0.6-0.2,1-0.9,0.9-1.6l0-0.1h-5.7c-0.4,0-0.7,0.3-0.7,0.6c-0.1,0.4,0.2,0.7,0.5,0.8
				l1.7,0.5l-2.2,6.4c-0.9,2.5-1.3,4.4-1.3,4.4h-0.2c0,0-0.3-1.8-1.2-4.4l-2.3-6.5l1.1-0.3c0.7-0.2,1.2-0.9,1-1.6h-8
				c-0.1,0-0.1,0-0.2,0v-8.7c0-0.3-0.2-0.5-0.5-0.5h-0.2c-0.1,0-0.1,0-0.2,0l-5.5,1.5c-0.2,0-0.3,0.2-0.3,0.4c0,0.1,0,0.2,0.1,0.2
				l0.6,0.7c0.7,0.8,1.1,1.8,1.1,2.9v3.8c-0.7-0.4-1.6-0.6-3.1-0.6c-4.4,0-8.7,2.7-8.7,9.1c0,5,2.6,8,7,8c2.3,0,4-1,5.1-2.5l0.1,0
				l0.1,1c0.1,0.7,0.8,1.2,1.5,1.1l4.4-0.8c0.2,0,0.4-0.2,0.4-0.5c0-0.1-0.1-0.3-0.2-0.4l-0.2-0.2c-1-0.9-1.6-2.2-1.6-3.6v-9.4
				l0.9,0.6l5.1,12.9c0.3,0.7,1,1.2,1.8,1.2h2.4l5.6-14.6L54.1,20.9z"/>
		</g>
	</g>
</g>
</svg>
