<svg xmlns="http://www.w3.org/2000/svg" viewBox="0 0 745.7 224"><path fill="#eb0a1e" d="M0 0h224v224H0z"/><path d="M112 61.2C69.7 61.2 37.3 83 37.3 112c0 28.1 31.5 50.8 74.7 50.8 43.1 0 74.7-22.8 74.7-50.8 0-29-32.4-50.8-74.7-50.8M158.6 83c1.6 6.3-5.7 14.1-29.2 16.7-1.6-16-6.3-29.5-14.1-32.3 10.6.3 20.6 2.1 29.3 5.3 8 3 13.1 6.9 14 10.3m-34.8 28.8c0 20.2-6.1 28.6-11.8 28.6-5.7 0-11.8-8.4-11.8-28.6v-.2c3.8.3 7.7.5 11.8.5 4.1 0 8-.2 11.8-.5v.2zM112 100.5c-4 0-7.6-.1-11-.3 1.8-13.2 6.5-20.9 11-20.9s9.2 7.7 11 20.9c-3.4.2-7 .3-11 .3M65.4 83c.8-3.4 5.9-7.3 14-10.3 8.8-3.2 18.8-5 29.4-5.3-7.8 2.9-12.6 16.3-14.1 32.3C71.2 97.1 63.9 89.2 65.4 83m-17.1 27.2c0-8.6 2.9-16 7.9-22.1.6 11.4 16 19.8 37.9 22.8v.9c0 27.4 7 41.9 14.8 44.9-33.4-1.2-60.6-21.8-60.6-46.5m66.7 46.5c7.8-3.1 14.9-18.7 14.9-44.9v-.9c21.9-3 37.3-11.4 37.9-22.8 5 6.1 7.9 13.5 7.9 22.1 0 24.7-27.3 45.3-60.7 46.5m192.8 10.9H297v34.9h-17v-89.4h31.2c19.1 0 29.7 11.2 29.7 26.2 0 11-5.8 20.5-16.7 25.3l24.7 37.9h-20l-21.1-34.9zM297 154.1h11.6c7.9 0 14.6-4.3 14.6-13.7 0-9.3-6.4-13.2-14.5-13.2H297v26.9zm114.9 23.2h-32l-8.8 25.2h-17.2l33.2-89.4h18.4l33.2 89.4h-18l-8.8-25.2zm-4.8-13.5l-11.2-32.1-11.2 32.1h22.4zm108.1-50.7l-32.3 89.3h-18.5L432 113.1h18.4l23.4 69.5 23.3-69.5zm39.9 71.7h-38.6v-11.1l39.3-60.7h15.6v58.3h10.9v13.5h-10.9v17.6h-16.2v-17.6zm0-13.4v-35.5l-22.7 35.5h22.7zM313.7 34.6h-15.2V83h-11.1V34.6H272V25h41.7v9.6zm45.9 22.1V83h-10.2V60.6c0-7.3-2.7-10.7-8.4-10.7-6.3 0-10.4 4.3-10.4 11V83h-10.2V21.6h10.2v26.7c2.9-4.8 8-7.4 14.4-7.4 9.5-.1 14.6 5.4 14.6 15.8zm48.8 7.9h-30.3c.7 7 5.4 10.7 12.6 10.7 5.4 0 10.1-1.9 13.3-4.3l2.5 8c-3.8 2.8-9.6 4.9-16.9 4.9-13.2 0-21.9-9.1-21.9-21.4 0-12.8 9-21.6 20.8-21.6 11.9 0 19.9 8.8 19.9 22.2v1.5zm-10.4-7c-.7-5.2-4.5-8.8-9.5-8.8-5.1 0-8.9 3.5-10.1 8.8H398zm69.5 9.1h-20.8L441.1 83h-11.2l21.6-58h11.9L485 83h-11.7l-5.8-16.3zm-3.1-8.8L457.1 37l-7.3 20.9h14.6zm26.5 13.8V21.6h10.2V70c0 3.4 1.4 4.8 3.8 4.8 1.5 0 2.9-.5 3.8-.8l1.1 8.1c-1.7.8-4.3 1.7-7.8 1.7-7 .1-11.1-3.7-11.1-12.1zm24.5 0V21.6h10.2V70c0 3.4 1.4 4.8 3.8 4.8 1.5 0 2.9-.5 3.8-.8l1.1 8.1c-1.7.8-4.3 1.7-7.8 1.7-6.9.1-11.1-3.7-11.1-12.1zm22.3-15.3h28.5V65h-28.5v-8.6zm90-31.4v58h-10.5l-28.7-41.1V83H578V25h10.6l28.6 41V25h10.5zm50.4 39.6h-30.3c.7 7 5.4 10.7 12.6 10.7 5.4 0 10.1-1.9 13.3-4.3l2.5 8c-3.8 2.8-9.6 4.9-16.9 4.9-13.2 0-21.9-9.1-21.9-21.4 0-12.8 9-21.6 20.8-21.6 11.9 0 19.9 8.8 19.9 22.2v1.5zm-10.3-7c-.7-5.2-4.5-8.8-9.5-8.8-5.1 0-8.9 3.5-10.1 8.8h19.6zm77.9-15.9L732.5 83H722l-8.7-27.1-8.5 27.1h-10.5l-13.8-41.4h11.2l8.7 28.9 8.8-28.9h8.5l9.1 28.6 8.3-28.6h10.6z" fill="#fff"/></svg>