<?xml version="1.0" encoding="utf-8"?>
<!-- Generator: Adobe Illustrator 23.0.3, SVG Export Plug-In . SVG Version: 6.00 Build 0)  -->
<svg version="1.1" id="Layer_1" xmlns="http://www.w3.org/2000/svg" xmlns:xlink="http://www.w3.org/1999/xlink" x="0px" y="0px"
	 viewBox="0 0 1018.1 229.8" style="enable-background:new 0 0 1018.1 229.8;" xml:space="preserve">
<style type="text/css">
	.st0{fill:#EB0A1E;}
	.st1{fill:none;}
	.st2{fill:#FFFFFF;}
</style>
<path class="st0" d="M0,0h224v224H0V0z"/>
<g>
	<path class="st1" d="M123.8,111.8v-0.2c-3.8,0.3-7.7,0.5-11.8,0.5s-8-0.2-11.8-0.5v0.2c0,20.2,6.1,28.6,11.8,28.6
		S123.8,132,123.8,111.8z"/>
	<path class="st1" d="M94.7,99.7c1.5-16,6.3-29.4,14.1-32.3c-10.6,0.3-20.6,2.1-29.4,5.3c-8.1,3-13.2,6.9-14,10.3
		C63.9,89.2,71.2,97.1,94.7,99.7z"/>
	<path class="st1" d="M94.1,111.8v-0.9c-21.9-3-37.3-11.4-37.9-22.8c-5,6.1-7.9,13.5-7.9,22.1c0,24.7,27.2,45.3,60.6,46.5
		C101.1,153.7,94.1,139.2,94.1,111.8z"/>
	<path class="st1" d="M129.9,110.9v0.9c0,26.2-7.1,41.8-14.9,44.9c33.4-1.2,60.7-21.8,60.7-46.5c0-8.6-2.9-16-7.9-22.1
		C167.2,99.5,151.8,107.9,129.9,110.9z"/>
	<path class="st1" d="M101,100.2c3.4,0.2,7,0.3,11,0.3s7.6-0.1,11-0.3c-1.8-13.2-6.5-20.9-11-20.9S102.8,87,101,100.2z"/>
	<path class="st1" d="M129.4,99.7c23.5-2.6,30.8-10.4,29.2-16.7c-0.9-3.4-6-7.3-14-10.3c-8.7-3.2-18.7-5-29.3-5.3
		C123.1,70.2,127.8,83.7,129.4,99.7z"/>
	<path class="st2" d="M112,61.2C69.7,61.2,37.3,83,37.3,112c0,28.1,31.5,50.8,74.7,50.8c43.1,0,74.7-22.8,74.7-50.8
		C186.7,83,154.3,61.2,112,61.2z M144.6,72.7c8,3,13.1,6.9,14,10.3c1.6,6.3-5.7,14.1-29.2,16.7c-1.6-16-6.3-29.5-14.1-32.3
		C125.9,67.7,135.9,69.5,144.6,72.7z M123,100.2c-3.4,0.2-7,0.3-11,0.3s-7.6-0.1-11-0.3c1.8-13.2,6.5-20.9,11-20.9
		S121.2,87,123,100.2z M65.4,83c0.8-3.4,5.9-7.3,14-10.3c8.8-3.2,18.8-5,29.4-5.3c-7.8,2.9-12.6,16.3-14.1,32.3
		C71.2,97.1,63.9,89.2,65.4,83z M48.3,110.2c0-8.6,2.9-16,7.9-22.1c0.6,11.4,16,19.8,37.9,22.8v0.9c0,27.4,7,41.9,14.8,44.9
		C75.5,155.5,48.3,134.9,48.3,110.2z M100.2,111.8v-0.2c3.8,0.3,7.7,0.5,11.8,0.5s8-0.2,11.8-0.5v0.2c0,20.2-6.1,28.6-11.8,28.6
		S100.2,132,100.2,111.8z M115,156.7C115,156.7,115,156.7,115,156.7L115,156.7C115,156.7,115,156.7,115,156.7
		c7.8-3.1,14.9-18.7,14.9-44.9v-0.9c21.9-3,37.3-11.4,37.9-22.8c5,6.1,7.9,13.5,7.9,22.1C175.7,134.9,148.4,155.5,115,156.7z"/>
	<polygon class="st2" points="115,156.7 115,156.7 115,156.7 	"/>
</g>
<g>
	<path class="st2" d="M339.7,139.4c0-15-10.6-26.2-29.7-26.2h-31.2v89.4h17v-34.9h10.8l21.1,34.9h20L323,164.7
		C333.9,159.9,339.7,150.4,339.7,139.4z M307.5,127.3c8.1,0,14.5,3.9,14.5,13.2c0,9.4-6.7,13.7-14.6,13.7h-11.6v-26.9"/>
	<path class="st2" d="M385.9,113.2l-33.2,89.4h17.2l8.8-25.2h32h0l8.8,25.2h18l-33.2-89.4H385.9z M383.5,163.9l11.2-32.1l11.2,32.1
		H383.5z"/>
	<polygon class="st2" points="472.6,182.7 449.2,113.2 430.8,113.2 463.2,202.5 481.7,202.5 514,113.2 495.9,113.2 	"/>
	<path class="st2" d="M570.2,113.1h-15.6l-39.3,60.7v11.1h38.6h0.1v17.6h16.2v-17.6h10.9v-13.5h-10.9V113.1z M553.9,171.5h-22.7
		l22.7-35.5V171.5z"/>
	<polygon class="st2" points="286.2,83.1 297.3,83.1 297.3,34.7 312.5,34.7 312.5,25.1 270.8,25.1 270.8,34.7 286.2,34.7 	"/>
	<path class="st2" d="M358.4,83.1V56.8c0-10.4-5.1-15.9-14.6-15.8c-6.4,0-11.5,2.6-14.4,7.4V21.7h-10.2v61.4h10.2V61
		c0-6.7,4.1-11,10.4-11c5.7,0,8.4,3.4,8.4,10.7v22.4H358.4z"/>
	<path class="st2" d="M388.4,84c7.3,0,13.1-2.1,16.9-4.9l-2.5-8c-3.2,2.4-7.9,4.3-13.3,4.3c-7.2,0-11.9-3.7-12.6-10.7h30.3v-1.5
		c0-13.4-8-22.2-19.9-22.2c-11.8,0-20.8,8.8-20.8,21.6C366.5,74.9,375.2,84,388.4,84z M387.3,48.9c5,0,8.8,3.6,9.5,8.8h-19.6
		C378.4,52.4,382.2,48.9,387.3,48.9z"/>
	<path class="st2" d="M445.5,66.8h20.8l5.8,16.3h11.7l-21.6-58h-11.9l-21.6,58h11.2L445.5,66.8z M455.9,37.1l7.3,20.9l0,0h-14.6
		L455.9,37.1z"/>
	<path class="st2" d="M500.8,83.9c3.5,0,6.1-0.9,7.8-1.7l-1.1-8.1c-0.9,0.3-2.3,0.8-3.8,0.8c-2.4,0-3.8-1.4-3.8-4.8V21.7h-10.2v50.1
		C489.7,80.2,493.8,84,500.8,83.9z"/>
	<path class="st2" d="M525.3,83.9c3.5,0,6.1-0.9,7.8-1.7l-1.1-8.1c-0.9,0.3-2.3,0.8-3.8,0.8c-2.4,0-3.8-1.4-3.8-4.8V21.7h-10.2v50.1
		C514.2,80.2,518.4,84,525.3,83.9z"/>
	<polygon class="st2" points="565,56.5 536.5,56.5 536.5,65.1 565,65.1 	"/>
	<polygon class="st2" points="616,25.1 616,66.1 587.4,25.1 576.8,25.1 576.8,83.1 587.3,83.1 587.3,42 616,83.1 626.5,83.1 
		626.5,25.1 626.5,25.1 	"/>
	<path class="st2" d="M657,41c-11.8,0-20.8,8.8-20.8,21.6c0,12.3,8.7,21.4,21.9,21.4c7.3,0,13.1-2.1,16.9-4.9l-2.5-8
		c-3.2,2.4-7.9,4.3-13.3,4.3c-7.2,0-11.9-3.7-12.6-10.7h30.3v-1.5C676.9,49.8,668.9,41,657,41z M647,57.7c1.2-5.3,5-8.8,10.1-8.8
		c5,0,8.8,3.6,9.5,8.8H647z"/>
	<polygon class="st2" points="744.5,41.7 733.9,41.7 725.6,70.3 716.5,41.7 708,41.7 699.2,70.6 690.5,41.7 679.3,41.7 693.1,83.1 
		703.6,83.1 712.1,56 720.8,83.1 731.3,83.1 744.5,41.8 	"/>
</g>
<path class="st2" d="M695.4,113.8v89.4h-17v-37.3H638v37.3h-17v-89.4h17V151h40.4v-37.3H695.4z"/>
<path class="st2" d="M773.2,139.4L745.4,211c-4.8,12.5-12,18.8-24.4,18.8c-3.4,0-7-0.4-10.6-1.8l1.9-13.5c1.8,0.6,3.7,1,5.8,1
	c5.8,0,10.1-2.1,13.1-9.2l2.4-5.8l-25.8-61.2H725l16.7,43.3l15.1-43.3H773.2z"/>
<path class="st2" d="M822.3,138.2c-9.1,0-17,3.8-21.4,10.7v-40.4h-15.7v94.6h15.7v-9.7c4.3,7.2,12.3,10.9,21,10.9
	c18.1,0,31-14,31-33.1C852.9,152,840,138.2,822.3,138.2z M818.8,190c-10.2,0-18.4-7.7-18.4-18.8c0-11.3,8.3-18.8,18.5-18.8
	c10.7,0,17.7,7.7,17.7,18.8C836.6,182.5,829.3,190,818.8,190z"/>
<path class="st2" d="M907.7,139.6l-2.5,15.1c-1.9-0.6-4.4-1.3-6.7-1.3c-9.9,0-14.6,6.9-14.6,19.6v30.1h-15.6v-63.7H884v10.2
	c3.7-8.4,9.3-11.6,15.6-11.6C902.6,138.1,905.3,138.7,907.7,139.6z"/>
<path class="st2" d="M917.6,119.1c0-5.4,4.2-9.6,9.7-9.6c5.4,0,9.6,4.2,9.6,9.6s-4.2,9.7-9.6,9.7
	C921.7,128.7,917.6,124.5,917.6,119.1z M919.2,139.4h15.7v63.7h-15.7V139.4z"/>
<path class="st2" d="M1002.4,108.5v40.4c-4.2-6.9-12-10.7-21.3-10.7c-17.7,0-30.7,13.8-30.7,33.1c0,19.3,13,33.1,30.7,33.1
	c9.3,0,16.9-3.5,21.3-11.2v10.1h15.7v-94.8H1002.4z M984.4,190c-10.6,0-17.7-7.6-17.7-18.8c0-11.2,7.3-18.8,17.9-18.8
	c10.7,0,18.4,7.8,18.4,18.8C1002.9,182.1,995.2,190,984.4,190z"/>
</svg>
