<?xml version="1.0" encoding="UTF-8" standalone="no"?>
<!DOCTYPE svg PUBLIC "-//W3C//DTD SVG 1.1//EN" "http://www.w3.org/Graphics/SVG/1.1/DTD/svg11.dtd">
<svg width="100%" height="100%" viewBox="0 0 191 371" version="1.1" xmlns="http://www.w3.org/2000/svg" xmlns:xlink="http://www.w3.org/1999/xlink" xml:space="preserve" xmlns:serif="http://www.serif.com/" style="fill-rule:evenodd;clip-rule:evenodd;">
    <g id="Group" transform="matrix(1,0,0,1,89,1)">
        <circle id="Oval" cx="6.5" cy="6.5" r="6.5" style="fill:none;stroke:rgb(214,32,39);stroke-width:1.5px;"/>
        <circle id="Oval1" serif:id="Oval" cx="14.5" cy="362.5" r="6.5" style="fill:rgb(214,32,39);stroke:rgb(196,30,37);stroke-width:1.5px;"/>
        <path id="Stroke-1" d="M4,13L4,23.155C4,25.24 5.214,28.153 6.695,29.626L10.653,33.562C12.136,35.037 14.72,37.268 16.399,38.517L28.995,47.914C30.672,49.166 31.094,51.609 29.929,53.344L24.81,60.98C23.648,62.716 22.697,65.841 22.697,67.924L22.697,74.291C22.697,76.376 21.485,79.287 20,80.761L6.695,93.994C5.214,95.469 4.766,98.202 5.706,100.067L16.319,121.177C17.256,123.042 17.607,126.222 17.098,128.245L14.274,139.484C13.765,141.508 13.59,144.85 13.887,146.916L17.483,171.951C17.778,174.015 19.72,175.944 21.796,176.238L46.968,179.816C49.044,180.11 51.692,181.77 52.857,183.505L67.325,205.09C68.488,206.825 70.205,209.768 71.142,211.633L77.082,223.448C78.02,225.313 80.469,227.173 82.523,227.582L98.421,230.743C100.475,231.153 101.521,233.071 100.742,235.006L94.224,251.211C93.447,253.146 91.528,255.864 89.959,257.248L53.589,289.4C52.022,290.785 50.742,293.624 50.742,295.709L50.742,316.019C50.742,318.106 49.207,320.574 47.332,321.506L35.454,327.412C33.579,328.345 32.588,330.727 33.251,332.704L35.513,339.459C36.178,341.436 35.347,344.078 33.67,345.329L18.022,357" style="fill:none;stroke:rgb(195,30,37);stroke-width:2px;"/>
    </g>
</svg>
