<svg xmlns="http://www.w3.org/2000/svg" viewBox="0 0 300.8 60.6"><path d="M1 35.1c.1 0 .4-.2.5-.2 0-.1.1-.2.1-.3-.1 0-.2-.1-.2-.1l-.5.5c.1 0 .1.1.1.1zm-.2 1.1c0 .1 0 .1.1.2v.1c.3-.2.5-.4.8-.6v-.2h-.6v-.3H.9l-.1.1c0 .2.1.2.2.3 0 .2 0 .2-.1.3l-.1.1zm40.8 9.1l-.1-.1h.1v.1zM30.7 57.1c-.1 0-.1 0-.2-.1h-.1v-.2h.2l.1.1v.2zm-.7.2h-.1c0-.1 0-.1.1-.2.1 0 0 0 .1.1l-.1.1zm-3.6-5.1l-.1-.1h.1v.1zm-9.2-1.3c-.2 0-.2.1-.3.2-.1 0-.1 0-.2-.1h-.1l.1-.1c.1-.2.2-.3.5-.3v.3zm-.8 7.4c0-.1 0-.2.1-.2 0-.1 0-.1.1-.1 0 .1 0 .2.1.3h-.3zm-.1-1.1h.2c0 .1-.1.1-.1.2h-.1v-.2zm.1-.6h-.2.2zm-.2-3c.1 0 .1 0 .2-.1h.1v.2c-.1 0-.2 0-.3.1v-.2zm-.1 1.9c-.1 0-.1 0-.2-.1h-.1c0-.2 0-.3.1-.4l.1-.1v.1c.1 0 .1 0 .2.1-.1.1-.1.2-.1.4zm0 .6L16 56h.1v.1zM12.7 15c-.1 0-.1 0-.1-.1-.2-.1-.1 0-.2-.2.2 0 .1.1.3.1v.2zM12 48.5h-.1c0-.1 0-.1.1-.2.1 0 0 0 .1.1v.1H12zm-.5-5.6h-.2v-.1h.2v.1zM11.2 30H11v-.1h.2v.1zm-.2-3.1s.1 0 .1.1-.1.1-.1.2h-.1c.1-.2.1-.2.1-.3zm0-19.1c.1 0 .1 0 .1.1-.1 0-.2.1-.2.1-.2 0 0-.1.1-.2zM10.7 1h-.1V.9h.1V1zm0 35.7l-.2.1c0-.1 0-.1.1-.2 0 0 .1 0 .1.1zm-.1-6.9v.1h-.1c0-.1 0-.1-.1-.2.1.1.2.1.2.1zm-.3-28.5c-.1 0-.2 0-.3-.1h-.1c0-.1.1-.2.1-.2.1.1.2.1.3.2v.1zm0 7.4c-.1-.1-.1-.1-.1-.2 0 0 .1 0 .1.1v.1zm-.1 27s-.1 0-.1.1c0-.1 0-.1-.1-.2h.2l.1.1h-.1zm0 1.7c-.1 0-.2 0-.3-.1-.1-.1 0-.1 0-.3.1.1.2.1.3.2v.2zm0 1H10v-.1h.1v.1h.1zm-.2 3.7l-.1-.1c.1 0 .1 0 .1.1zM9.9 8.8h-.1c0-.2 0-.2.1-.3h.1l.1.1-.2.2zm0 25.7c-.2 0-.5 0-.6-.1h-.2c.1-.2.1-.2.2-.3h.2c.1.2.1.2.3.3l.1.1zm0 6.3c-.1 0-.2 0-.2-.1h-.2v-.1l.1-.1h.2v.3h.1zm-.7-4.5v-.1h.2c0 .1 0 .1.1.2v.1c-.2-.2-.2-.2-.3-.2zm0 6.6c-.2-.2-.1-.5-.1-.8h.2c0 .2.1.2.2.3-.1.2-.2.3-.3.5zm.3 3.3h-.1v-.1h.1v.1zm-.3 8.2c0 .1 0 .1-.1.1 0-.1 0-.1-.1-.2.2 0 .2 0 .2.1.1-.1.1 0 0 0zm.2-38.9v.1c-.2-.1-.3-.1-.3-.3.1 0 .2.1.3.2zm-.3 13.3c-.1 0-.1-.1-.2-.1s0-.1-.1-.2c.1 0 .2.1.2.1v.2h.1zm0 9c-.1 0-.2 0-.3-.1 0-.1 0-.2.1-.2.1.1.2.1.3.2l-.1.1zm-.2 14.4h-.1l-.1-.1c0-.2 0-.2.1-.3h.1v.4zm0 4.1h-.2c0-.2 0-.2.1-.3v-.1l.1.1c.1.1 0 .1 0 .3zm-.3-19.8c0-.1 0-.2.1-.3v-.1H9v.2l-.2.2h-.2zm.1-1.6c.1 0 .1 0 .2.1l-.1.1c0 .1-.1.1-.1.2h-.2l.2-.4zM8.5 40c-.1 0 0 0-.1.1v-.3c0 .1.1.1.1.2 0-.1 0 0 0 0zm0 11.7c0-.1 0-.1 0 0-.3-.2-.2-.3-.1-.5h.1v.5zm0-8.8v.1l-.1.1c-.1-.1-.1-.2-.1-.4 0 .1.1.1.2.2zM8.2 38c.1 0 .1 0 0 0l.1.2h-.1V38zm.1.6s.1 0 .1.1v.1c-.1-.1-.1 0-.1-.2zm-.2-1.7c0-.1 0-.2-.1-.2v-.1h.5c0 .1 0 .3-.1.4-.1 0-.2-.1-.3-.1zm0 10.7c-.1-.1-.1-.1-.1-.2h.1v.2zM8 32.3c.3 0 .3 0 .5.1 0 .1 0 .1-.1.2-.2 0-.3.1-.5.1 0-.1 0-.3.1-.4zm-.3 13l-.1.1c.1-.1.1-.2.2-.3.1 0 .1 0 .1.1-.1 0-.1.1-.2.1zm0 3.6l-.1.1c0-.1 0-.2-.1-.3h.2c0 .1 0 .1.1.2 0-.1 0-.1-.1 0zm-.3-1.7h.2v.1h-.2v-.1zm-.2-1.1c.1 0 .2 0 .3.1 0 .1 0 .1-.1.1s0 0-.1.1c0-.1-.1-.2-.1-.3zm0 4.8h-.1v-.2s.1 0 .1.1v.1zm-.1-17.8s.1 0 .1.1v.1c0 .1 0 0-.1.1H7c0-.1.1-.2.1-.3zM7 34.3c-.1-.1-.1-.1-.1-.2 0 0 .1 0 .1.1v.1zm0 7.2c-.1.1-.2.2-.2.3h-.2c.1-.1.2-.2.2-.3H7zm-.3 7.4l-.3.3-.1.1-.1-.1c.1-.1 0-.1.2-.1 0-.1 0-.3.1-.4h.2v.2zm-.1 4c-.1 0-.1 0-.2.1 0-.1 0-.2.1-.3h.2v.2h-.1zm-.4.8v.1h-.1v-.7c.1 0 .1 0 .2.1 0 .3 0 .4-.1.5zM6 25.5v-.1.1zM6 36c0 .1 0 .1-.1.1 0-.1 0-.1-.1-.2l.2.1zm0 11.5h-.1v-.1c.1 0 .1 0 .1.1zm-.1-.7l-.1-.1h.1v.1zm-.1 2.3h-.2c0-.1.1-.2.1-.3 0 0 .1 0 .1.1v.2zm0 2.7c-.1.1-.2.1-.2.2h-.2c0-.5.1-1 .3-1.4h.1c0 .3-.1.7 0 1.2zm-.3-6.3v-.1h.1l-.1.1zm-.2-1.3v-.1s.1 0 .1.1v.2c0-.1 0-.1-.1-.2zm-.2-4.9c0-.2.1-.5.1-.7h.1c0 .2 0 .5-.1.7h-.1zm-.1 12c0 .1 0 .1-.1.1s-.1 0-.2.1c0-.5.3-.9 0-1.2.1-.1 0-.1.2-.1.1.3.4.8.1 1.1zm-.1.9s0 .1 0 0l-.2.1c0-.1 0-.2.1-.2V52h.1v.2zm-.2-7.3l.3-.1c0 .1 0 .2-.1.2s-.1 0-.2.1v-.2zm-.1 1.5h-.1v-.2h.2c-.1 0-.1.1-.1.2zm-.4-1.8v-.3l.1-.1h.1c0 .2 0 .3-.1.3.1.1.1.1-.1.1zm.2 1.4h-.2c0-.1.1-.1.1-.2v-.1h.1v.3zm-.3 2.6l-.2-.2c0-.3.1-.3.2-.5h.1c-.1.3-.1.5-.1.7zm0 2.5l-.2-.2.1.1.1.1zm-.3-4.6v.1l-.1-.1c0-.3.1-.3.2-.5.1.2 0 .4-.1.5zm-.1.5l-.1.1c0-.2 0-.2.1-.3h.1c0 .1 0 .1-.1.2zm0 3.5c0-.1 0 0-.1-.2h.1v.2zm-.2-1.6h-.3c0-.1 0-.2.1-.3h.2c0 .1 0 .1.1.2h.1c-.2-.1-.2 0-.2.1zm0 1.1h-.2v-.1h.2v.1zm-.3-1c0 .2-.3.4-.3.8-.1-.1-.2-.1-.2-.2.1-.3.2-.4.3-.8h.2v.2zm-.9-.8h-.2c0-.4.1-.7.1-1.1.4-.2.5-.3.7-.7.2 0 .2 0 .3.1-.2.5-.6.7-.8 1.2-.1.1-.1.3-.1.5zm-.4-2.4c0-.1 0-.1.1-.1 0 0 0-.1.1-.1.2-.1.4 0 .6-.4h.1v.1c-.1.2-.2.3-.3.5h-.6zm-.3-.5c.1-.1.1-.2.2-.3.2 0 .3 0 .5.1v.2l-.2.2s-.1 0-.2-.1-.2-.1-.3-.1zm0-1.3c-.1.1-.2.1-.2.2h-.2c0-.2 0-.5.1-.6 0-.2 0-.2.1-.3h.4c-.1.2-.1.5-.2.7zm.6-.7h.1c0 .1 0 .2-.1.3v-.3zm-.8-.6h-.1c.1-.4.4-.5.5-.8.1 0 .2 0 .2.1l.1.1H2c-.1.3-.4.3-.6.6zm.7-.2h.1c-.1.4-.3.4-.6.6h-.2V43c.2-.2.5-.3.7-.5zM1.7 40c0-.2 0-.2-.1-.3h-.1c-.1-.2.1-1.4.2-1.5V38c.1 0 .1 0 .2.1H2c-.2-.1.2-.4.2-.6h.1c-.2.4-.1 1-.5 1.2 0 .3 0 .9.2 1 0 .5-.2.7-.6.9v.3c.4-.1.7-.4 1-.6 0-.2-.1-.5-.1-.7l.3-.3h.2c-.1.8-.3 1.7-.7 2.3-.2.3-.6.4-.8.6h-.1c.2-.4.5-.5.7-.9.1-.1.1-.2.2-.4v-.1c-.1 0-.1 0-.2-.1-.2.2-.3.5-.5.7-.1 0 0 0-.1.1l-.1-.1c0-.6.1-1.2.5-1.4zm-.5-2.4h-.1c.2-.3.4-.5.6-.8h.1c.2.1.3.2.5.2-.2.2-.4.2-.7.3-.1.1-.3.2-.4.3zm.8-1.2h.2s0 .1.1.1l.1.1h-.1c0 .1 0 .1-.1.2-.1 0-.1 0-.2-.1v-.3zm.5 2.2c0 .1 0 .2-.1.3v.1h-.1c0-.1 0-.3.1-.4h.1zm.1-2.5h.2c.1.2.2.2.3.4.4 0 .5-.1.6-.3h.4c-.1.4-.5.5-.7.8-.4 0-.6-.4-.9-.6v-.3h.1zm.1-.6h.2c0 .1.1.2.1.3l.1.1-.1.1c-.2 0-.2-.1-.3-.2v-.3zm.9.4c0 .1 0 .1-.1.2h-.1c0-.1.1-.2.1-.2h.1zm-.2-.9h.2l.3.6c-.2-.1-.5 0-.7-.1 0-.1 0 0-.1-.1.1-.1.2-.2.3-.4zm-.1-2.1h.2c.1.1.1.2.2.2v.2h-.1c-.1-.2-.2-.2-.3-.4zm0-7.8c0-.1 0-.1.1-.1 0 .2.1.2.1.3h-.2v-.2zm-.2 3.8H3c0-.3.1-.3.2-.5h.1c-.1.3-.1.4-.2.5zm0 4.2v.2c-.1-.1-.2-.2-.3-.2 0-.1 0-.2.1-.3h.2c0 .1.1.3 0 .3zm-.4-2.5c-.2-.1-.1 0-.2-.2H3l.1.1c0 .1 0 .1-.1.2-.1-.1-.2-.1-.3-.1zm0 3.1h-.3v-.1l.1-.1c.1 0 .2 0 .3.1 0-.1-.1 0-.1.1zm-.3-2.3c0-.2.1-.2.2-.3 0 0 .1 0 .1.1 0 .2-.1.2-.2.3l-.1-.1zm-.1-4c0-.1.1-.2.1-.3.1 0 .2.1.2.1 0 .1 0 .1-.1.2h-.2zm-.1-2.1v-.1c.1 0 .2 0 .3-.1v.2h-.3zm.1-12.8v.1c-.1-.1-.1 0-.1-.2l.1.1zm-.4-.8h-.1v-.1c0-.1 0 0-.1-.1l.1-.1c.1-.1.1-.2.2-.3h.3v.3c-.3.1-.3.1-.4.3zm.1.4h-.2v-.2c.1.1.2.1.2.2 0 0 .1 0 0 0zm.1 4h-.2c0-.2 0-.2.1-.3v-.1h.1v.4zm-.3-.7c0-.1 0-.2.1-.3V15H2v.1c0 .1 0 .1-.1.2l-.1.1zm.1 1.6h-.1c0-.2 0-.2.1-.3.1 0 .1 0 .2.1l-.2.2zm-.1 1.2v.1h-.1v-.2s.1 0 .1.1zm-.3-8.7c-.1-.1 0-.2.1-.3h.1c.1 0 .1.1.2.3h.2v.4h-.2l-.1-.1c-.2 0-.2-.1-.3-.3zm.1.8l-.1.1v-.3c.1 0 .1.1.2.1-.1.1-.1 0-.1.1zm-.5 2.3H1c-.1 0 0 0-.1-.1v-.1s.1 0 .1-.1c.1-.1.3-.2.4-.3 0 0 .1 0 .1.1-.1.2-.2.4-.4.5zm.2 2.4h-.1c0-.2 0-.2.1-.3h.2c-.1.2-.1.2-.2.3zM.7 9.1v-.2h.1l.1.1v.2H.7v-.1zm.2-2.4h.4V7h-.2C1 6.9 1 6.9.9 6.7zm.3-.5v.2h-.1C1 6.3 1 6.3 1 6.2h.2zM.9 3.1v-.3c.2 0 .4 0 .5.1H2V3c-.2.1-.3.4-.5.5l-.1.1c-.1-.3-.2-.4-.5-.5zm.2 1.5s-.1 0-.1.1v.1H.9c0-.1 0-.1-.1-.2l.1-.1h.2v.1zm.3-3.3c0-.1 0-.1 0 0zm.5 7.1h.2v.2h-.2v-.2zm-.3-.8c.1 0 .1-.1.2-.1.2.1.1.1.2.2v.1h-.4v-.2zm-.3-2.2v-.2c.2.1.3.2.5.2h.1v.3h-.1c-.2 0-.3-.1-.5-.3zm.6-1c0 .1 0 .1-.1.1v.1c0-.1 0-.1-.1-.2h.2zm0-.4c-.1.1-.2.1-.3.2-.2 0-.3 0-.3-.1h-.1v-.2c.1 0 .2 0 .2.1h.5zm-.7 4.4c0 .1-.1.1-.1.2v.1H.9v-.3h.3zm-.1-.5H.9c0-.3.2-.3.3-.5h.2c-.1.2-.2.4-.3.5zm.1.2h.2l-.1.1c0 .1 0 .1-.1.1v-.2zm.2 1l-.1.1c0-.1 0-.1-.1-.2.1.1.1.1.2.1zM2 2c.1 0 .3 0 .4.1.2.1.3.2.3.4-.2 0-.3-.1-.4-.1-.1 0-.2-.1-.4-.1.1-.2.1-.2.1-.3zM2.7.8h.2c0 .1 0 .2-.1.3l-.1.1v.1l-.1-.1v-.1c-.1-.1 0-.2.1-.3zm.5.7v.2c0 .1-.1.1-.1.2H3c0-.1.1-.3.2-.4zm-.1-.4s.1.1.2.1v.1H3s.1-.1.1-.2zm.3 3.6s.1 0 .1.1-.1.1-.1.2h-.1c0-.2.1-.2.1-.3zm0-.7s.1 0 .1.1l-.1.1h-.1c0-.1 0-.2.1-.2zm.3-.5c-.1-.1-.2-.1-.2-.3.1.1.1.2.2.3zm.4 2.6l.1.4-.1-.1s-.1 0-.1-.1 0-.1.1-.2zm0-.7c.1.1.2.1.3.2 0 .1 0 .2-.1.3-.1-.1-.2-.1-.3-.2 0-.1 0-.2.1-.3zM4 3c.1 0 .1 0 .1.1L4 3v.1V3zM4.4.7s0 .1 0 0v.2c-.1 0 0 0-.1.1V.7h.1zm-.2 3.7c.1 0 .1 0 .2.1v.1c-.1 0-.1 0-.2-.2zm.3.7h-.1V5h.1v.1zM4.6 7s-.1.1-.2.1c-.2 0-.1 0-.2-.1s0-.1.1-.3h.2l.1.1V7zm.3.2s0 .1.1.1v.1h-.1c0 .1-.1.2-.2.3-.1 0-.1 0-.2-.1l-.1-.1c.1-.1.3-.2.3-.3h.2zM5 3.1h.1c0 .2 0 .2-.1.3h-.1c0-.2 0-.2.1-.3zm0-.6s.1 0 .1.1v.1c0 .1 0 0-.1.1h-.1c0-.2.1-.2.1-.3zm-.1 3.2c0-.1 0-.1.1-.2 0 0 .1 0 .1-.1 0 .1 0 .1.1.2h-.3v.1zm.3 5.8c-.1-.1-.1-.1-.1-.2 0 0 .1 0 .1.1v.1zm0 1.2c-.1.1 0 .1 0 0-.1 0-.2 0-.2-.1v-.3h.2l.1.1c0 .2 0 .3-.1.3zM5 33.1V33l.1-.1h.2v.2H5zm-.2 7.6s.1 0 .1.1 0 .2-.1.2v.1h-.1c.1-.1.1-.2.1-.4zm-.1-1.3c.1 0 .2.1.2.1v.1h-.1l-.1-.1v-.1zm.3-.5c-.1 0-.1 0-.2.1v-.2h.1s0 .1.1.1zm-.3-1.7c.1 0 0 0 .1-.1l.1.1c0 .1-.1.1-.1.2h-.2c0-.1 0-.1-.1-.2h.2zm-.2-2.4v-.3c.2.1.2.4.2.8-.1 0-.1 0-.2-.1h-.1c0-.2 0-.3.1-.4zm-.2-5.2c0-.1 0-.1.1-.2h.3v.1h-.1s-.1 0-.1.1h-.2zm-.2 4.1h.2v.1c-.1 0-.1 0-.2.1v-.2zm-.2.8s.1 0 .1.1 0 .1-.1.2v.1h-.1c.1-.3.1-.3.1-.4zm-.2-1s.1.1 0 0l.1.1v.1h-.1v-.2zm0-3.3c0 .1 0 .1-.1.2h-.1c-.1-.1-.2-.2-.2-.3.2 0 .3.1.4.1zm0-6.4v.2h-.1c0-.1 0-.3-.1-.4.1 0 .1.1.2.2zm-.1-1.2h.1v.2h-.3c.1 0 .1-.1.2-.2zm-.2-1c0-.1 0-.1.1-.2.1 0 .1 0 .2.1v.1h-.3zm-.3 2.5c.1 0 .2 0 .2.1l.1.1v.1l-.1-.1c-.2-.1-.1 0-.2-.2zM3 26.3h.2c0 .1 0 .2-.1.2H3v-.2zm.1-4c0 .1 0 .2-.1.3 0 .1 0 .1-.1.1 0-.1 0-.3-.1-.4h.3zm-.4-6.4c0-.1 0-.1-.1-.2.1 0 .2-.1.2-.1.1 0 .3 0 .5.1v.2c-.1 0-.3.1-.4.1 0-.1-.1-.1-.2-.1zm0 2.9h-.1c0-.2-.1-.3-.2-.4 0-.2 0-.4.1-.5h.2c0 .3.1.6.2.8 0 .1 0 .1-.1.1s0-.1-.1 0zm.1 10.9v.2c-.1 0-.1 0-.1-.1-.1 0-.1 0-.1-.1h.2zM2.6 26h.1v.1h-.1V26zm-.2-1.4c.1 0 .2.1.3.1v.1l-.1.1c-.1 0-.1 0-.2-.1v-.2zm-.1-2.2c.1 0 .1 0 .2.1v.1c0 .1 0 0-.1.1h-.2c0-.2.1-.2.1-.3zm.2-.7v.1h-.1l.1-.1zm-.1-1.3v-.1h.1l.1.1c0 .3-.1.3-.1.5-.1 0-.1 0-.2-.1s0-.3.1-.4zm0-3.6c-.1 0-.1 0-.2-.1.1 0 .2 0 .2.1zm0-2.9s.1 0 .1.1 0 .1-.1.2v-.3zm0-8.1h.3v.1c-.1 0-.2 0-.3.1h-.1c0-.1 0-.1.1-.2zm.7-2.5c0 .1 0 .1-.1.1v.1c-.1-.1-.2-.2-.3-.4.2.1.3.1.4.2zm.2-1c-.2.1-.3.2-.4.3v-.1l.3-.3.1.1zm0 5.9c0 .1 0 .1-.1.1-.1-.3-.1-.5-.1-.8.1 0 .2.1.2.1.1.2.1.4 0 .6zm.1 1c-.2 0-.2-.1-.3-.2 0-.2 0-.2.1-.3.1 0 .2.1.2.1.1.2.1.3 0 .4zm-.2 3.9c.1 0 .1 0 .2.1 0 .1 0 .1-.1.2-.1 0-.1 0-.2-.1 0-.1 0-.1.1-.2zm-.1-3.5h.1v.2c0-.1 0-.1-.1-.2zm0 1.9c.1 0 .2 0 .3.1v.2H3c0-.1 0-.1-.1-.2.1-.1.1-.1.2-.1zm-.2-5.3c-.1 0-.1 0-.2-.1v-.2H3c0 .1 0 .2-.1.3zm-.2 5.9v-.2l.1-.1H3v.2h-.3v.1zm-.1.9c.1-.1.1-.2.2-.4h.1c0 .1-.1.3-.1.4h-.2zm.1-3.8s-.1 0 0 0l-.3.1v-.1h.3zm.1 2.2v.1h-.1s0-.1.1-.1zm.1-.9c0 .1 0 .1-.1.1v.1s0-.1.1-.2zm0-.6c-.1.1-.2.1-.2.1h-.1c0-.1 0-.1-.1-.2l.1-.1h.2l.1.2zm-.2 4.8h-.3c0-.1 0-.1.1-.2 0 0 .1 0 .1-.1.1.1.1.2.1.3zm-.2-1h-.1v-.2c.1 0 .2.1.3.1 0 .1 0 .1-.1.2 0-.1 0-.1-.1-.1zm1.1-1.4c0 .2-.1.2-.2.3-.1-.1-.1-.1-.2-.3 0-.1 0 0 .1-.1l.3.1c-.1-.1-.1 0 0 0zm.8-3.6c-.4 0-.7 0-.9-.1.2-.1.7-.2.8-.2 0-.1 0-.3.1-.4h.2c0 .1 0 .2.1.2-.1.3-.2.3-.3.5zm.3 2.8c-.1.2-.1.2-.2.3-.2 0-.2 0-.3-.1 0 0 0-.1-.1-.1.1 0 .4 0 .6-.1zm.2 1.9c-.1.2.1.2 0 .4v.1c-.2-.1-.2-.1-.3-.2.1-.4.3-.5.4-.8.1 0 .1 0 .2.1 0 .3-.2.3-.3.4zm0 17.7c0-.2 0-.1.1-.3.1 0 .2 0 .2.1s0 .2-.1.3c-.1-.1-.1-.1-.2-.1zm0 1.6c0-.2 0-.2.1-.3h.1c0 .2 0 .2-.1.3h-.1zm.1 3.7c-.2.1-.2.1-.3.2h-.1c0-.1.1-.1.1-.2H5zm-.2-8.8c0 .1 0 .1-.1.2l-.1.1c0-.1 0-.1-.1-.3h.3zm0-3.7v-.1h.1v.1h-.1zm.1 5.4v.1h-.1l.1-.1zm-.2-4.1c.1 0 .1.1.2.1 0 .2-.1.2-.2.3h-.2c.1-.1.1-.2.2-.4zm0-4c0 .1 0 .1.1.2-.1 0-.1 0-.1-.2zm-.3 3h.3l.1.1c0 .1-.1.1-.1.2-.1 0-.2 0-.3-.1-.1-.1-.1-.1 0-.2zm.1-4.9c0 .1 0 .1.1.2h-.2c0-.1 0-.1-.1-.1v-.1h.2zm-.3-6.8c.1 0 .1 0 .2-.1 0 .1.1.1.1.2s0 .1-.1.1 0 0-.2.1v-.3zm0 4.3v-.1h.1l-.1.1zm-.1 14.3v-.2s.1 0 .1-.1h.2c0 .2 0 .2-.1.3h-.2zm-.1.2l.2.2.1.1h-.2c-.1.2-.2.2-.3.3h-.1l.3-.6zm-.2-2.9h.1c0 .2 0 .2-.1.3v.1h-.1c0-.2 0-.3.1-.4zm0-.9H4v.1l-.2.2c-.3 0-.1-.1 0-.3zm-.1-1v.1c0-.1 0-.1-.1-.2 0 .1.1.1.1.1zm.1-2.1c0 .1 0 .1-.1.2h-.1c0-.1 0-.1.1-.2h.1zm-.1-2.2l.1.1h-.1v-.1zm.3-7.1c0 .1 0 .1-.1.2-.1 0-.1 0-.2-.1h-.1V15c.1.1.2.1.4.1zm-.1-2.4c0 .1 0 .1 0 0l.1.3c-.1 0-.2-.1-.2-.1h-.2c0-.1 0-.1.1-.2h.2zm.1-.6v.1h-.2V12c.1 0 .2 0 .2.1zm.1 17.7c-.1.1-.1.1-.1.2v.1h-.1v-.3h.2zM4 17.7c0-.1.1-.2.1-.3.1.1.1.1-.1.3zm-.1 9.6v.2c-.1 0-.1-.1-.2-.1 0-.1 0 0-.1-.2.1 0 .2.1.3.1zm-.1-4.1c0-.1 0-.1.1-.2 0 0 .1 0 .1.1l-.1.1v.1l-.1-.1zm.3-9.6c-.1.1-.1.2-.2.3v.1h-.2c0-.2.1-.3.2-.4h.2zm.4-2.8c-.1 0-.2 0-.3-.1h-.1v-.1c.1-.1 0-.1.2-.1.1 0 0 0 .1-.1.1.2.1.2.1.4zm-.3-1.1H4c0-.3.2-.4.3-.6h.1c0 .3-.1.4-.2.6zm-.9 9.7v-.1c.2 0 .2.1.3.2v.1c-.2-.1-.1-.1-.3-.2zm.1-1.7c.1 0 .1 0 .2.1v.2h-.3c0-.2 0-.2.1-.3zm-.3-.6c0-.1 0-.1-.1-.1v-.1c.1 0 .1 0 .2-.1 0 .1 0 .1.1.2h-.2v.1zm-.2 1V18h.2v.1h-.2zm.2 1.9c0-.1 0-.1-.1-.2l.1-.1c.1 0 .1 0 .2.1h.1c0 .1 0 .1-.1.2h-.2zm0 1.5l-.1.1h-.1v-.2c.1 0 .2 0 .2.1zm0-.4s.1 0 0 0h.1c.1.1 0 .1-.1 0 0 .1 0 0 0 0zm2-4.1v-.1c.1 0 .1 0 .2-.1v.2h-.2zm.3 8.4h.2c0 .1 0 .2-.1.2v.1h-.2v-.3h.1zm.2-2.3v.1c-.1-.1-.2-.2-.3-.2v-.2l.3.3zm.2-2.3v.1c-.2 0-.1 0-.2-.2l.2.1zm-.2-.6h-.1c0-.1 0-.2.1-.3v-.1h.1c0 .1 0 .3.1.4-.2.1-.2.1-.2 0zM2.1 3.3h.2-.1c0 .1 0 .1-.1.1v-.1zm.2 4.9c-.1 0-.1 0 0 0l-.1.1h-.1v-.2c.1 0 .1 0 .2.1zm-.2-3.1c.3-.4.3-.4.4-1-.2-.1-.1-.1-.3-.1v-.1c.1-.1.2-.2.2-.3.2.1.1.2.4.3 0 .1-.1.2-.2.3 0 .2 0 .3.1.5-.1.1-.2.3-.3.4h-.3zM4 32.7v-.3c.1 0 .1 0 .2.1v-.3h.1c.1.2.1 1 0 1.2v.1c-.1 0-.1 0-.2-.1-.1-.3-.1-.6-.1-.7zm.2 2.5h.2c0 .1 0 .1-.1.2l-.1.1c.1-.1.1-.2 0-.3zm0 5.5h-.1c0-.2 0-.2.1-.3h.1c0 .2-.1.2-.1.3zm0 .8c0 .1 0 .1 0 0-.1 0-.1-.1-.1-.1h.2c0 .1 0 .1-.1.1zm0 1s.1 0 .1.1 0 .2-.1.3c0 0 0 .1-.1.1s-.1 0-.1-.1.1-.3.2-.4zm-.4 1.1c0-.1 0-.2.1-.3.1 0 .1 0 .2.1 0 .1 0 .2-.1.2v.1l-.2-.1zm-.3-5c-.1.1-.3.3-.3.4H3c0-.1 0-.2.1-.2.1-.2.2-.2.3-.3h.2l-.1.1zm-.2 1.6c0 .1-.1.1-.1.2H3c0-.1 0-.2.1-.3 0 .1.1.1.2.1zm0-.4h-.1c.1-.3.3-.5.5-.8h.2c-.2.3-.4.5-.6.8zm.5.6c0-.2 0-.5.1-.7h.2l.1.1c0 .3-.1.4-.2.6-.1-.1-.1 0-.2 0zm-.2.7c0-.1 0-.1.1-.2v-.1c.1.2.1.2.2.2v.1h-.3zm0 2.9h.2c-.1.2-.1.4-.2.6h-.2c0-.2.1-.4.2-.6zm0-1.5c0 .1 0 .1-.1.2-.1 0-.1 0-.2-.1 0-.3 0-.6.1-.9h.2c-.1.4-.2.6 0 .8zm-.7-1.8c.1 0 .1 0 .2.1-.1.3-.3.5-.4.8-.1.3.1.5.2.8-.2-.1-.2-.1-.3-.2-.1-.9 0-.9.3-1.5zm-.2-3.6c0-.1 0-.1.1-.2 0 0 .1 0 .1.1v.1h-.2zm.1.9c.1 0 0 0 0 0l.1.2h-.2c0-.1.1-.2.1-.2zm.2 6.2c0 .1-.1.1-.1.2h-.2c.1-.6.2-1.1.5-1.6.1 0 .1 0 .2.1 0 .3-.1.6-.3.8-.1 0-.1.1-.2.1 0 .1.2.2.1.4zm.4 3.1c0 .2 0 .7-.2.8v.1h-.1c0-.3 0-.7.1-.9h.2zm-.1-1.2c0-.6.2-.4.3-.7.1-.1 0-.3.1-.3s.1 0 .2-.1c-.1.5-.4.7-.5 1.1h-.1zm1.6 2.4v.3h-.1c0-.1 0-.3-.1-.4.1 0 .1.1.2.1zm-.1-.5v-.2H5l.1.1v.3c-.1 0-.2-.1-.3-.2zm.8-17.8c-.1 0-.2 0-.3-.1h-.1v-.2c.2 0 .4 0 .5-.1l.1.1c-.1.1-.1.2-.2.3zm0 7.5v-.1h.2v.1h-.2zm0 6.1l.1.1h-.1v-.1zm.2 5.9c0 .1 0 .2-.1.2 0-.1-.1-.2-.1-.3.1 0 .1.1.2.1zm-.3-18.6c.1 0 .1 0 .2.1v.1c-.1 0-.1 0-.2-.2zm-.2.7c0-.1 0-.1.1-.2 0 0 .1 0 .1.1v.3l-.2-.2zm.2.2c.1 0 .1 0 .2.1v.1h-.2V32zM6 21.1v.1h-.2c0-.1 0-.1.1-.2l.1.1zm-.1-2.8v.1h-.1c-.1-.2-.2-.4-.5-.6 0-.1 0-.1.1-.2.2.2.3.5.5.7zm-.2-2.2v.2s-.1 0-.1.1v.1c0-.1 0 0-.1-.1 0-.1 0 0-.1-.1.2-.2.2-.2.3-.2zm-.2-7.4h.6c0 .1-.1.1-.1.2-.2 0-.3-.1-.4 0-.3 0-.2 0-.1-.2zm.6-7H6c0-.1 0-.1-.1-.2l.2.2zm.3 5.4c0 .1 0 .1-.1.1l-.1.1c0-.2 0-.3-.1-.4 0-.1 0-.1.1-.2.1 0 .3.3.2.4zm0-1.5c.1 0 .1 0 .2.1l-.1.1c0 .1 0 .1-.1.2h-.2c.1-.2.1-.3.2-.4zm.1 15.1c-.1-.2-.1-.1.1-.3 0 .1 0 .2-.1.3zm.2 4.1c-.2 0-.2 0-.3-.1v-.2h.2c0 .1.1.2.1.2v.1zm.2 12.5c-.1 0-.2-.1-.2-.1 0-.1 0-.2.1-.3.1 0 .1 0 .2.1v.3h-.1zm-.7-18.5s.1 0 .1.1l-.1.1h-.1c.1 0 .1-.1.1-.2zm.3 10.1v-.2h.2v.2h-.2zm.1 9.7c0 .1 0 .1-.1.2v.1h-.1c0-.1 0-.2.1-.3h.1zm0-9c0-.1 0-.1-.1-.2h.2l-.1.1v.1zm-.2-2.5h.2c0 .1 0 .1-.1.3h-.2c0-.1 0-.1.1-.3zm0-14.5v.1h-.1v-.1h.1zm-.1-4v-.2h.2v.2h-.2zm.1 2.3v.1h-.1l.1-.1zM6.1 13c.1 0 .1.1.2.1-.2 0-.2.1-.2-.1zm.2.6c0 .1 0 .1.1.1v.1h-.2c0-.1 0-.2-.1-.2h.2zm.2 32.7h.2c0 .1 0 .2-.1.3v.1h-.1v-.4zm-.1-5.1c-.1 0-.1 0-.2-.1l-.1-.1c.2-.1.4-.4.5-.6h.2c0 .4-.2.6-.4.8zm.6-8.7v.2c-.1-.1-.1 0-.1-.2H7zM7 3.3v.2c0-.1 0-.1-.1-.2H7zm.3 3.2c0 .1 0 .1-.1.2-.1 0 0 0-.2.1v-.3h.3c-.1 0-.1 0 0 0zm.2 2.1c.1.1.2.1.3.2 0 .1-.1.1-.1.2h-.1l-.1-.1v-.3zm0-.7c.1 0 .1 0 0 0l.2-.1V8l-.1-.1c.1.1-.2.1-.1 0zM7.7.7l.1-.1H8v.2c-.1 0-.1 0-.2-.1h-.1zM7.9 7c0-.1 0-.1.1-.2 0 0 .1 0 .1.1V7h-.2zm-.1-3v-.1h.1l-.1.1zm-.1 33.8c0-.1 0-.1.1-.2 0 0 .1 0 .1.1v.1h-.2zm0 .4c.1 0 .1.1.2.1l-.1.1h-.2s0-.1.1-.2zm-.2-8.1l-.2.2-.2-.2h.4zm-.2-5.7c0 .2 0 .1-.1.2v.1c-.1-.1-.1-.2-.1-.3.1-.1.1-.1.2 0zm-.2-13zm.4 1.1v.2c0-.1 0-.1-.1-.2h.1zm-.2-1.7c-.1-.1-.1-.2-.2-.2v-.2c.2 0 .4.1.5.2l.1.1h-.2s-.1.1-.2.1zm0 24.2h-.2c0-.1 0-.2.1-.3v-.1h.4v.1c-.1 0-.2.2-.3.3zm0 6.3c0-.1 0-.2.1-.2l.1.1.1.1h-.2v.1l-.1-.1zm-.2 3.4h.3c0 .1 0 .1-.1.2h-.2v-.2zm.1-2.4v.2h-.1c0-.1 0-.1-.1-.2h.2zm-.1-3.5v-.2h.2c0 .1 0 .1-.1.2 0-.1 0-.1-.1 0zm.3 1.9v.2c-.1 0-.2 0-.2-.1v-.2h.2v.1zm.6-9.5v.1h-.1l.1-.1zm-.2-11.8c0-.1.1-.2.1-.3H8c0 .1 0 .2-.1.3h-.1zm.6 10.3l.1.1c-.2 0-.2 0-.3-.1h.2zm-.1-12.5c0-.1 0-.1-.1-.2h.1v.2zm.3 15.9v.1h-.1c0-.1 0-.1-.1-.2.1.1.2.1.2.1zm-.1-13.6h-.1c0-.1 0-.1.1-.2h.2c-.1.1-.1.2-.2.2zm.4 14.3c0 .1 0 .1-.1.2v.1h-.1c0-.1 0-.2.1-.3h.1zm-.3-18.5c.1 0 .1 0 .2.1l-.1.1c0 .1-.1.1-.1.2-.1 0-.2 0-.3-.1-.1 0-.1 0-.1-.1.2 0 .3 0 .4-.2zm-.4-4.4h.1v.1h-.1v-.1zM9.6 28c0 .1 0 .1-.1.1 0-.1 0-.1-.1-.3.2.1.2.1.2.2zM9.2 8.3c.2 0 .2.1.3.2.1 0 .1 0 .1.1l-.3.3h-.1v-.6zm.6-5.5c.1 0 .1 0 .2.1V3h-.2v-.2zM2.2 29.5c-.1.2-.2.2-.3.4h-.3c.1-.2.2-.2.3-.2v-.3h.2s.1 0 .1.1zM2 23.8c-.1 0-.2 0-.3.1v-.2l.1-.1H2v.2zm-.7-.8c-.3 0-.3 0-.4-.2l.1-.1h.3v.3zM1 18.8H.8c0-.1.1-.1.1-.2H1v.2zM30.5.5v38.3c0 1.8-.3 3.4-1 4.7-.7 1.3-1.6 2.3-2.8 3-.7.4-1.4.7-2.2.8-.3.1-.7.1-1.1.2h-1c-2.5 0-4.4-.8-5.8-2.3-1-1.1-1.6-2.4-1.9-4 0 0-.4-.1-.6-.1v-.2h.4l.1-.1v-.1c-.1-.6-.1-1.3-.1-1.9V.5H1c-.5.2-.5.5-.7 1-.1.4-.4.7.1.9-.1.3-.2.5-.4.7v.2l.1-.1c.3 0 .5.3.7.5l.1.1H.8c-.1.2-.2.4-.4.5 0 .3.1.4.1.6l-.3.3c0 .3.1.4.2.6.1 0 .1 0 .2-.1.1-.2.1-.3.1-.5h.2c0 .1 0 .1-.1.2.1 0 .1 0 .2-.1 0 .1.1 0 0 .1 0 .1-.1.2-.2.2.1.3 0 .3 0 .4-.2 0-.2 0-.3-.1-.1.4-.1 1-.3 1.3.1.2.1.2.3.3-.5 1-.5 1.9.3 2.6 0 .4-.4.9-.6 1 0 .4.2.7.3 1 .1.6-.3.9-.3 1.3-.1.3.2.4.2.6 0 .2 0 .4-.1.6l.3.3c.1.1 0 .4 0 .6h.2c.2.3.4.7.5 1l-.2.2c0 .3.1.4.2.6-.3.4-.3.7-.8.9 0 .2.2.3.2.4 0 .1-.1.3-.1.5.4-.1.7-.3 1-.5h.1c0 .2.1.3-.1.5.1.2.2.3.4.3-.3.2-.5-.1-.6-.2-.1 0-.3.1-.4.2v.4c.2 0 .2-.1.3 0 .1 0 .1 0 .2.1 0 .1 0 .1-.1.2v.1c-.2 0-.3 0-.5-.1v.3c.1 0 .3 0 .4.1.1-.1.3-.3.4-.5.1 0 .1 0 .2-.1 0 .4-.1.6-.3.8 0 .1 0 .1.1.1 0 .2.3.3.4.3v.1c-.2 0-.4 0-.6.1.1.5.2.2-.1.7 0 .1 0 0 .1.1.1 0 .2 0 .3.1 0 .2.2.5.1.6l-.1.1c-.2-.3-.5-.5-.6-.8-.1-.1 0-.2 0-.5-.2 0-.3 0-.4.1L.7 23c0 .1 0 .1.1.2.4 0 .4-.1.6-.2 0 .1.1.1.2.1l-.3.3c0 .4.3.7.6.9v.1c-.2 0-.2-.1-.3-.2-.1 0-.1 0-.2.1s-.1.3-.1.4c0 .1.1.1.1.2.2-.1.2-.2.3-.3.1 0 0 0 .1-.1l.2.1c-.1.6-.3 1-.7 1.4 0 .1 0 .1.1.1.1.1.6.1.8.1v.1c-.1 0-.2-.1-.3-.1l-.1.1c0 .5.3.4.4.8-.2 0-.3 0-.4-.1-.1 0-.1-.1-.2-.1 0-.1 0-.2.1-.3-.1-.1-.2-.3-.3-.4-.1 0-.1 0-.2.1-.1 0-.1 0-.2.1 0 .2 0 .2.1.3h.3v.3l-.1.1H.9c0 .1 0 .2-.1.3v.2c.1 0 .2 0 .3.1 0-.2.1-.3.1-.5h.2c.1.3.2.7.2 1 .1 0 .1 0 .2-.1 0-.1.1-.4.1-.5h.3c0 .1 0 .1.1.1 0 .3-.1.2-.3.3.5.3-.4.9-.6.9 0 .4.1.6-.2.8 0 .1 0 .1.1.2.2.2.6.2.7.5.2.5-.2.9.4 1.2-.1.2-.2.3-.3.5v.3c.2 0 .3-.1.5-.2h.1c0 .1 0 .1-.1.2-.2.4-.6 0-.6.9-.1 0-.1 0-.2-.1h-.3c0-.1 0-.2.1-.3-.2 0-.3 0-.4-.1-.2-.1-.3-.3-.3-.5H.6c0 .6.4.5.6.9.1.1.1.3.2.4v.1c.2-.1.2-.1.3-.3H2c0 .2 0 .4-.2.5 0 .1 0 .1.1.2.2 0 .2 0 .3-.1h.1c0 .1 0 .3-.1.5s-.2.2-.4.3v1.1c.3-.1.1-.2.3-.4.1-.1.3-.2.5-.3.2-.1.3-.2.4-.2 0-.3 0-.3-.2-.4.2-.6.3-.8.3-1 .1 0 .1.1.2.1-.1.2-.2.3-.2.5l.3.3c-.1.3-.5.6-.9.7h-.3c0 .2.1.5.1.5 0 .3-.3.2-.5.4-.1.1-.1.3-.2.3s-.1 0-.3-.1c-.1.4-.2.5-.5.8 0 .3 0 .4.2.5 0 .2-.1.2-.2.2 0 .1 0 .2.1.2 0 .1 0 .1.1.1 0 0 .1-.1.1-.2h.1c0 .3-.1.6-.3.7 0 .3.1.4.3.5-.1.7-.3 1.1-.5 1.7v.3c.2.2.3.2.3.4v.2c-.1.2-.1.6-.1.9 0 .2.1.5.1.8-.1.4-.1.9-.1 1.3l.1.1c.4-.1.4-.3.7-.5v.1s0 .1.1.1v.1c-.1.3-.5.5-.8.6 0 .1 0 .2-.1.3-.1.1 0 .3.1.5v.1c0 .1 0 .2.1.2.1-.1.2-.1.3-.2 0-.2 0-.2-.1-.3v-.2c.2.1.3.2.5.3-.2.3-.3.5-.6.7.1.2.1.3.2.5l.1.1c.2-.3.4-.8.7-.9v-.1h.1c0 .1 0 .2-.1.3-.1.3-.4.6-.7.8v.3c.1.1.1.3.2.4.1.2.3.4.5.7.1.1 0 .2 0 .3.2.3.4.7.5 1H3c0 .2 0 .4.1.5.2.4.5.8.8 1.1.1 0 0 0 .1-.1 0 .2 0 .4.1.5.2.2.4.5.6.7.1.1.2.2.3.2 0 .1 0 .2.1.3l.3.3.2.2.2.2c.3.3.6.6.9.8.1.3.3.4.5.6.2.2.4.3.6.5.1.1.2.2.4.3.1.1.2.1.3.2.1.1.2.1.2.2.2.1.4.3.6.4.1.1.2.1.3.2l1.5.9c3.5 1.8 7.2 2.7 11.3 2.7 2.3 0 4.6-.3 6.7-.9.7-.2 1.4-.4 2-.6 2.7-1 5.1-2.4 7.2-4.3 2.1-1.9 3.7-4.2 4.9-6.9 1.2-2.7 1.8-5.6 1.8-8.7V.5H30.5zm-29 33.7c.1 0 .2 0 .3-.1h.1c0-.2-.1-.2-.3-.3 0-.1 0-.2-.1-.3-.2 0-.2 0-.3.1 0 .3 0 .3.3.3-.1.1-.1.2 0 .3zM.6 20.7s-.1 0 0 0l.3.6h.4c-.1-.2-.3-.4-.6-.5v-.2c-.1 0 0 0-.1.1zm145.7 34.8l-.1-.1h.1v.1zm-1.2-.1v.1h-.1c-.1 0 0 0-.1-.1l.1-.1.2-.2c0 .2 0 .2-.1.3zm-12.2-15h-.2v-.1h.2v.1zm-.8 6.8h-.1c0-.1 0-.1-.1-.2h.2v.2zm-.5-21.5h-.2c0-.1 0-.1.1-.2 0 0 .1 0 .1.1v.1zm-.2.5h-.1c0-.1 0-.2-.1-.3.1 0 .1 0 .2.1v.2zm-.3-5.9c-.1.8-.3 1.6-.7 2.3-.5.8-1.1 1.5-2 2.1l-1.2.6c-.7.2-1.4.4-2.3.4h-8.4v-12h8.3c.3 0 .7 0 1 .1.4 0 .8.1 1.2.2.4.1.8.3 1.2.5.9.5 1.6 1.2 2.1 2 0 .1.1.2.1.2.3.5.4 1 .6 1.5.1.5.2 1 .2 1.5 0 .2 0 .4-.1.6zm-1.1 6.1l-.1.1c0-.2 0-.1.1-.3h.2c-.1.1-.1.2-.2.2zm-3.6 8.6c-.2 0-.3 0-.4-.2.1.1.3.1.4.2zm-.4-22.7c-.1 0-.1 0-.1.1 0-.1 0-.1-.1-.2.1.1.1.1.2.1zm6.7 25.2h.1v.1h-.1v-.1zm-24.1-2.3c-.1 0 0 .1-.1 0s0 0 0-.2c.1 0 .2.1.2.1-.1 0 0 0-.1.1zm39.9 23.9l-7.6-14.7-.4-.8-3.2-6.2-.9-1.7c-.1-.1-.2-.2-.2-.4l-.1-.1c.1-.1.3-.1.4-.2.1-.1.2-.1.4-.2 1.3-.7 2.5-1.6 3.6-2.6.9-.9 1.7-1.8 2.5-2.9v-.1c1.9-2.7 2.8-5.8 2.8-9.6v-2.3c0-.2 0-.3-.1-.5 0-.2 0-.3-.1-.5 0-.2-.1-.3-.1-.5 0-.1-.1-.3-.1-.4v-.1c-.1-.3-.1-.6-.2-.9 0-.2-.1-.3-.1-.5-.4-1.3-.9-2.5-1.6-3.7-.1-.2-.3-.5-.4-.7-.8-1.2-1.6-2.4-2.7-3.4-.4-.4-.9-.9-1.4-1.2-.8-.6-1.6-1.2-2.5-1.7-1.9-1.1-4.1-1.9-6.5-2.3-.2 0-.3 0-.4-.1h-.7c-.5 0-.9 0-1.3-.1h-25.7V60h14.6V37.9h1.9v-.4c.2.1.3.2.4.4h2.7v.1l.3.6L132 60h17l-.1-.2-.4-.7zM187 21.9c-.1 0-.1 0-.1-.1.1 0 .1 0 .2-.1.1 0 0 0 .1-.1 0 .1 0 .1.1.2-.2.2-.3.2-.3.1zm-2.8 9.2c-.1 0-.1 0-.2-.1h-.1c0-.1.1-.2.1-.2h.2l.1.1c0 .2-.1.2-.1.2zm0-7.8v.1l-.2-.2c.1.1.1.1.2.1zm-2.8 14.1c-.1 1-.1 1.8-.2 2.5 0 .2-.1.5-.1.7-.1.4-.2.9-.3 1.3v.1c-.1.3-.2.5-.2.8-.3.8-.7 1.5-1.1 2.1-.8 1-1.7 1.7-2.9 2.2-.2.1-.4.2-.7.2-.7.2-1.5.3-2.3.3h-1.5c-.9-.2-1.8-.5-2.6-.9-.3-.2-.6-.4-.9-.7-.1-.1-.2-.2-.3-.2-.2-.1-.3-.3-.4-.5-.1-.1-.1-.2-.2-.2-.1-.2-.3-.4-.4-.6-.2-.3-.5-.7-.6-1-.4-.9-.5-2.1-.8-3v-.8c0-.3-.1-.6-.1-1v-.1c0-.4-.1-.7-.1-1.1 0-.7-.1-1.4-.1-2.2v-8.6c0-1.6.1-3 .2-4v-.2c.1-.9.2-1.6.3-2.2v-.5c.1-.3.1-.6.2-.9v-.3c0-.1 0-.1.1-.2 0-.1 0-.1.1-.2v-.1c.2-.6.5-1.2.8-1.7 0-.1.1-.1.1-.2.1-.1.2-.2.2-.3.4-.5.9-1 1.5-1.4h.1c.3-.2.6-.3.9-.5.1-.1.2-.1.4-.2.4-.2.9-.3 1.3-.4h.1c.5-.1 1-.1 1.5-.1 1.3 0 2.4.2 3.5.7.5.2 1 .5 1.3.8.1.1.2.1.2.2 0 0 .1 0 .1.1l.1.1c.2.1.3.2.4.4.1.2.3.4.4.6 0 .1.1.1.1.2s.1.1.1.2.1.1.1.2c.1.1.1.2.2.4 0 .1 0 .1.1.2 0 .1 0 .1.1.2.3.8.6 1.6.7 2.7.1.4.2 1 .2 1.6v1.4c.1.9.1 2 .1 3.1v4.4c.5 2.4.4 4.7.3 6.6zm-15.3 15.9h-.1v-.1h.1v.1zm.4-41.1h.2v.2h-.2v-.2zm5.3-10.4c.1.1 0 .1 0 .1V2h-.1c.1-.1.1-.2.1-.2zm3.8 4.6h.1v.1h-.1v-.1zm-13.3 48.4l-.1.1c-.1 0 0 0-.1.1l-.1-.1c0-.1 0-.1.1-.2.1 0 .1 0 .2.1 0-.1 0 0 0 0zM161 44.4c0 .1 0 0-.1.1l-.1-.1c-.1 0-.1 0-.2-.1 0-.1 0-.1.1-.2.1 0 .2.1.2.1v.2h.1zm-.2 7.6c0 .1 0 .1-.1.1 0-.1 0-.1-.1-.2l.2.1zm-.2-38.2c0-.1 0-.1.1-.2h.1c0 .2-.1.2-.2.2zm-2.5 5.9h-.2v-.1h.2v.1zm-2.1-.5s-.1 0-.1.1c-.1-.2-.1-.2-.2-.5.1.1.2.2.3.2v.2zm-1.1 14.3h.2c-.2.1-.1.1-.2 0zm-1.7-9l-.1-.1c0 .1.1.1.1.1zm41.9 20.4c0-.1.1-.3.1-.4 0-.2.1-.4.2-.6 0-.1.1-.3.1-.4 0-.1 0-.3.1-.4.1-.7.2-1.5.3-2.3.2-2.4.3-5.3.3-8.6v-4.6c0-2-.1-3.8-.2-5.5 0-.4 0-.7-.1-1 0-.2 0-.5-.1-.7 0-.1 0-.2-.1-.3v-1c0-.3-.1-.5-.1-.8-.2-1.5-.6-2.9-1-4.3-.1-.4-.3-.9-.5-1.3-.9-2.2-2.2-4.3-4-6.1-1.6-1.6-3.4-3-5.2-4-.5-.3-1-.5-1.5-.7l-.6-.3c-2.6-1.1-5.6-1.6-9-1.7h-1.3c-.2.1-.4 0-.6 0h-.5c-.1 0-.2.1-.3.2h-2c-.1 0-.3 0-.4.1-.5.1-.9.2-1.4.3-1.1.2-2.1.6-3 1-2.6 1.1-5.1 2.8-7.3 5-.6.6-1.2 1.3-1.7 1.9-.8 1-1.5 2.1-2 3.2-.5 1-.8 2-1.1 3.1-.1.2-.1.5-.2.7-.2.7-.3 1.5-.4 2.3v.1c-.1.5-.1 1-.2 1.6v.1c-.2 1.3-.3 2.8-.3 4.3v11c0 1.3.1 2.5.2 3.6 0 .1 0 .2.1.3v.5c0 .6.1 1.1.2 1.7.1.8.2 1.5.3 2.2.1.6.2 1.1.3 1.6.3 1.6.9 3.1 1.7 4.5.5.9 1.1 1.8 1.7 2.6.5.6 1 1.2 1.6 1.8 1.2 1.2 2.4 2.3 3.8 3.1l.9.6c1.1.7 2.4 1.3 3.7 1.7.6.2 1.1.4 1.7.5 2 .5 4.1.8 6.6.8 3.6 0 6.7-.6 9.4-1.7s5.1-2.8 7.3-5c1.8-1.8 3.1-3.8 4-6 .3-.8.6-1.6.8-2.4-.4 0-.3-.1-.3-.3zm-113-24.2c-.1.7-.3 1.3-.7 2-.2.4-.5.7-.8 1.1-.4.4-.9.8-1.4 1.1-1 .6-2.1.8-3.4.8h-8.3v-12h8.3c.3 0 .7 0 1 .1.4 0 .8.1 1.2.3.4.1.8.3 1.2.5 1 .6 1.7 1.3 2.2 2.2.4.7.6 1.4.7 2.1 0 .3.1.6.1.9 0 .2-.1.5-.1.9zm-9.7 9.1h-.1c0-.1 0-.1.1-.2.1 0 0 0 .1.1v.1h-.1zM66.9 3.5c-.2 0-.3 0-.5-.1l-.1-.1c0-.1 0-.1.1-.2 0-.2 0-.2.1-.3h.6l.1.1c0 .4-.1.4-.3.6zm-5.8 11l-.1-.1h.1v.1zm-3 17.5c-.1-.2-.1-.1-.1-.2 0 0 .1 0 .1.1.1.1.1.1 0 .1zM57 3.3h-.1v-.2h.1v.2zm39.4 12.8c0-.2-.1-.5-.1-.7-.4-1.8-1-3.6-2-5.2-.4-.7-.8-1.4-1.3-2 0-.2-.2-.3-.3-.4-.7-1-1.6-1.9-2.5-2.7-.8-.7-1.8-1.3-2.8-1.9-.9-.5-1.9-1-2.9-1.4h-.2c-.7-.2-1.5-.4-2.2-.7-.5-.1-.9-.2-1.4-.3h-.8c-.4-.1-1.1-.1-1.5-.2-.2 0-.3 0-.4-.1H52.8V60h14.6V38.8h8.9c4.3 0 7.9-.9 11-2.7.1-.1.2-.1.3-.2 2.5-1.5 4.5-3.5 6-5.8.5-.8.9-1.6 1.3-2.5.1-.3.3-.6.5-1 .5-1.3.8-2.6 1-3.9v-.4c.1-.3.1-.6.2-.9 0-.6.1-1.2.1-1.8 0-.8 0-1.6-.1-2.4 0-.4-.1-.8-.2-1.1zm203.3 43.7c-.1 0-.1 0-.1.1h-.1c0-.2 0-.1.1-.2h.1v.1zm-.5-1.2c.1 0 .2 0 .2.1 0 .3.2.5.1.6v.1c-.1 0-.2 0-.3-.1-.1-.2-.1-.5 0-.7zm-.3-2.8c.1 0 .2.1.3.1 0 .1 0 .1-.1.1v.1c-.1-.1-.1-.2-.2-.3zm-.5-.1c-.1.2-.2.2-.3.3-.1.1 0 0-.2 0 0 0 0-.1-.1-.1.1 0 .1 0 .3-.1v-.2l.1-.1c.1 0 .1 0 .2.1.1 0 .1 0 0 .1zm-.4.8c-.1 0-.1 0-.1-.1 0 .1 0 0 .1.1 0-.1 0-.1.1-.2 0 .1 0 .1.1.2-.2.1-.2.1-.2 0zm-.5-2.2c.3.2.4.5.8.6 0 .1 0 .2-.1.3-.1 0-.2 0-.3.1V55c-.1-.1-.3-.2-.4-.3v-.4zm-.1-.8c.2 0 .3.1.4.2 0 .1 0 .1.1.1v.2c-.2-.1-.3-.2-.6-.3 0 0 .1-.1.1-.2zM295 57c-.1-.1-.1-.1-.1-.2h.1v.2zm-.4-7.6c-.2-.1-.3-.1-.5-.2 0-.1 0-.2-.1-.3.3.1.3.3.6.5zm-.6.6h-.2c.1-.2.1-.3.1-.6h.2l.1.1c0 .4-.1.4-.2.5zm-.3 4.7h-.1v-.1c.1 0 .1 0 .1.1zm-1 3.3l-.1.1c0-.1 0-.1.1-.2v.1c0-.1 0 0 0 0zm-1.3-1.2h-.1c0-.1 0-.1-.1-.2.1 0 .1 0 .2.1v.1zm-.3-13.7h-.1V43h.1v.1zm0 12h-.4V55c.1 0 .2-.1.3-.2h.1v.3zm-.8-2.5h-.1c0-.1.1-.1.1-.2 0 0 .1 0 .1.1-.1 0-.1.1-.1.1zm-.3-.9h.2l.1.1c0 .1 0 .1-.1.2h-.1c-.1-.1-.1-.2-.1-.3zm0-.7c.1.1.1 0 .1.2h-.1V51zm.9-.7v.1c-.1 0-.1-.1-.2-.1h.2zm-1.8-10.1s-.1 0-.1.1c0-.1 0-.1-.1-.2h.2c.1-.1.1 0 0 .1zm0 12h-.2V52h.2l.1.1v.1h-.1zm-.3 2.5c-.2 0-.2 0-.3-.1h-.1v-.1c.1 0 .2 0 .3.1l.1.1zm-.4-2.3c.1 0 .1 0 .2.1 0 .1 0 .1-.1.2v.1h-.1v-.4zm.2-8v.3h-.1c0-.1 0-.3-.1-.4 0 .1.1.1.2.1zm-.2-5.2c.1 0 0 0 .1-.1l.1.1v.2h-.2v-.2c-.1 0-.1 0 0 0zm-.7-1.2c-.1 0-.1 0-.2-.1h-.1v-.2c.1 0 .2.1.3.1v.2zm.1 2.4l-.4.1v-.2h.3l.1.1zm-.3 12.3h-.2v-.2h.2v.2zm-.4-12.7h.2l.1.1v.1c-.3 0-.2 0-.3-.2zm0 12.8c-.4 0-.7.1-.8.3h-.3c.2-.4.6-.6 1.1-.5v.2zm-.6-16.8c.1 0 .2 0 .2.1s0 .2-.1.2h-.2c0-.1 0-.2.1-.3zm.3 11.9h.2v.1h-.2v-.1zm1.8-6.7h.1v.1h-.1v-.1zm-2.8 10.5h-.2v-.2h.2v.2zm-.3-13.7l.1.1v.1h-.1V38zm-.3 9.8h-.2c0-.1 0-.2.1-.2v-.1h.1v.3zm-.2-8.1h.1v.1h-.1v-.1zm-.2-.9h.2l.1.1v.1c-.3-.1-.2 0-.3-.2zm-.1-1.7h.2l.2.2v.1c-.2 0-.2 0-.3-.1-.1 0-.1 0-.2-.1 0 0 .1 0 .1-.1zm-.2-2.8c.1 0 .2.1.2.1v.1h-.1l-.1-.1v-.1zm-.2 16.8s0-.1-.1-.1c.1 0 .1 0 .1.1zm-.1-5.3v.2h-.1c.1-.1.1-.2.1-.2zm0 3.4h-.1v-.1h.1v.1zm-.8-35.8c.1 0 .1 0 .2.1v.2h-.1c0-.1-.1-.1-.1-.3zm-.5 3.9h-.1c0-.2-.1-.3-.1-.5.1 0 .1.1.2.1v.4zm-.9.7c-.1-.1-.1-.1-.1-.2 0 0 .1 0 .1.1v.1zm2.2-13s.1 0 .1.1v.1h-.1V5zm.2 6.1h.2l-.1.2h-.2c.1-.1.1-.2.1-.2zm.3-7.9v.1c-.1 0-.1 0-.2-.1 0-.1 0-.1-.1-.2.1.1.2.1.3.2zm-.1 3.3h.1c0 .1 0 .1-.1 0zm.4-1.2s.1 0 0 0l.1-.1v.6h-.2c0-.2.1-.3.1-.5zm.4 10.5c0 .1 0 .1-.1.2h-.2c0-.1 0-.1.1-.2h.2zm.3 4.4h.2v.1l-.1.1h-.2c0-.1 0-.2.1-.2zm0-18.1h.2c0 .1 0 .1-.1.2h-.2c0-.1 0-.2.1-.2zm.4 22.1s.1 0 .1.1-.1.1-.1.2h-.1c0-.1 0-.1.1-.3zm.1-2.6l.1.1h-.1v-.1zm.1-4.8h.3l.1.1c0 .2 0 .2-.1.3-.2 0-.2 0-.3-.1v-.3zm.2-13h.2V4h-.2c0-.1 0-.1-.1-.1v-.1h.1zm.4 5.1c-.1 0-.1 0-.1-.1-.1 0-.1 0-.1-.1.1 0 .1 0 .2-.1v.3zm.2-4.8h.1v.1h-.1v-.1zm.4 6.1c0 .1 0 .2-.1.3-.1 0-.1 0-.2-.1 0-.1 0 0-.1-.1 0-.1.1-.1.1-.2.1.1.2.1.3.1zm-.1 12.1h-.1c0-.2 0-.4-.1-.5.2.1.2.1.3.2 0 .2 0 .2-.1.3zm.3-19.9h.1c0 .2.1.3.2.4v.1c-.1 0-.2-.1-.3-.1v-.4zm.7 17.2c.1 0 .2 0 .2.1s0 .1-.1.2h-.3c.1-.1.1-.2.2-.3zm0-2.4c.1 0 .1 0 .2.1v.1h-.2v-.2zm.5 1.6c0 .1-.1.1 0 0l-.2.1c0-.1 0-.1.1-.2 0 .1 0 .1.1.1zm.1-6.4h.1v.1c-.1.1-.2.2-.2.3h-.1c.1-.1.2-.3.2-.4zm.3-7c0 .1 0 .1 0 0h-.1.1zm-2 17.4c-.1 0-.2-.1-.2-.1 0-.1 0-.1.1-.2.1 0 .1 0 .2.1v.2h-.1zm-.4-1.1v-.2c.1 0 .2.1.2.1v.2c0-.1-.1-.1-.2-.1zm-.4 1.8c0 .1 0 .1 0 0l-.2.1v-.1h.2zm-5-11.1c-.2 0-.2 0-.1-.2.1 0 .1 0 .1.1h.1s0 .1-.1.1zm-.4-4h-.1v-.1h.1v.1zm0 15.2c-.1-.1-.1-.1-.1-.2 0 0 .1 0 .1.1v.1zm-.2-7.3c-.1 0-.1 0-.2-.1 0-.1 0-.1-.1-.2h.2l.1.1v.2zm-.2 10.1l-.1.1h-.2c0-.1.1-.2.1-.2.1 0 .2.1.2.1zm-.7 5.1l-.1-.1c.1 0 .1.1.1.1zm-.4-13.7h-.1v-.1s.1 0 .1.1zm-.1 27.1c-.1 0-.2 0-.2-.1-.1-.1-.1-.2-.1-.3.2 0 .2 0 .3.1h.1c-.1.2-.1.2-.1.3zm-.4-6.9c.1 0 .1 0 .2.1v.1h-.2V38zm-.2-21.4c-.2-.1-.1 0-.1-.2h.1v.2zm.3 11.2h.1c0 .2 0 .3-.1.4v.1h-.1c0-.2.1-.3.1-.5zm-.6 10.3c-.1 0-.1.1-.1-.1.1 0 0 0 .1.1 0-.1 0-.1 0 0zm-.2 6.7v-.2c.1 0 .1 0 .1.1.1 0 .1 0 .1.1h-.2zm-.3-17h.2l.1.1v.1h-.3v-.2zm-.6 7.5c-.1 0-.1-.1-.2-.1 0 0 0-.1.1-.1l.1.1v.1zm-.4 1.8h-.1V37h.1v.1zm-.4-6.3c0-.1 0-.1.1-.2.2.1.3.3.6.3v.5c-.3-.2-.4-.4-.7-.6zm-.3 0h-.1v-.1l.1.1zm-.4-2.6c0 .1 0 .1-.1.1 0-.1 0-.1-.1-.2l.2.1zm0 4.6c-.2 0-.1 0-.1-.1l.1.1zm-.3-4.1h-.3c0-.1.1-.1.1-.2.1 0 0 0 .2-.1v.3zm-.7-1.2c-.1 0-.2 0-.3.1v-.2l.1-.1c.2 0 .2 0 .3.1l-.1.1zm.2 1c-.1 0-.2 0-.2-.1h.2v.1zm-.6 5.9c-.1 0-.1 0-.2.1v-.1h.2zm-1.1-4.9c-.1 0 0 0-.1.1-.1-.2-.1 0 0-.2.1 0 .1 0 .2.1h-.1zm-3.9 4.7c0 .2-.1.1-.1.3h-.1c.1-.2.2-.3.2-.3.1-.1.1 0 0 0zm-.4 13.4c-.1-.1-.1-.1-.1-.2 0 0 .1 0 .1.1v.1zm-.1 4l-.1-.1c.1 0 .1 0 .1.1zm-.2-41.6h.1v.2h-.1V10zm-.1 27.5l-.1.1c0-.1 0-.1.1-.2 0 0 .1.1 0 .1zm-.6-2.4c0-.1 0-.1.1-.2 0 0 .1 0 .1-.1 0 .1 0 .1.1.3h-.3zm0-3.9c0 .1 0 0 .1.1-.2 0-.1 0-.1-.1zm8.6-5.4c.1 0 .1.1.2.1 0 .1 0 .1.1.2h-.2l-.1-.1v-.2zm-10.5 25.9h-.2v-.3c.1 0 .1.1.2.1v.2zm-.7-18h-.1v-.1c.1 0 .1 0 .1.1zm-.7 23.2h-.1v-.1h.1v.1zm-.9-10.3v-.2h.1c0 .1 0 .1.1.2h-.2zm-.3 7.8v.1h-.1c0-.3 0-.4.1-.5.1 0 .1 0 .2.1.1 0 .1 0 .1.1 0 0-.2.1-.3.2zm-.2-.6c.1 0 .1.1.2.1v.1c-.3 0-.2 0-.2-.2zm-.1-8.1c-.1-.1-.1-.1-.1-.2l.1.1v.1zm-.7 12.9c-.1 0-.1 0-.2-.1v-.2h.2l.1.1c-.1.1-.1.1-.1.2zm-.4-9.9l-.1-.2h.1v.2zm0 1.3h-.3v-.1h.2l.1.1zm-.8 6.2h-.2V56h.2v.2zm-2.5-6.5c0 .2-.1.3-.2.3h-.1l-.2-.2c.1-.1.3-.1.5-.1.1-.1 0 0 0 0zm0 7.3c-.1 0-.1 0-.2-.1h-.1l.1-.1s.1 0 .1.1l.1.1zm-.3-2.7c-.2-.1-.2-.2-.4-.3v-.1h.2c.1.1.1.2.2.3v.1zm-.5 3.8c-.1 0-.1.1-.1-.1.1 0 .1 0 .1.1zm-.3-6.4c-.1-.1-.1-.1-.1-.2h.1v.2zm-.1 4.3h-.2v-.2h.2v.2zm-.9-4.9c-.1 0 0 0-.2.1 0-.3.2-.4.2-.7h.1l.1.1c-.1.1-.1.3-.2.5zm1.3 5v.1h-.1c0-.1 0-.1-.1-.2.1 0 .2 0 .2.1zm4.5-4.3v.2c-.1-.1-.1-.1-.2-.3.1.1.1.1.2.1zm-6.1 6.9c-.1 0-.1 0-.2-.1h-.1v-.1l.1-.1h.1l.1.1v.2zm-2.9.9h-.2v-.2h.3c-.1.1-.1.1-.1.2zm-2.1-1.9c-.2 0-.2 0-.3-.1v-.2c.1 0 .2 0 .3.1v.2zm-.6.2c-.1 0-.2 0-.3-.1.1-.1 0-.1.1-.2.1 0 .1 0 .2.1v.2zm14.6-33h-.2c0-.1 0-.1-.1-.2l.1-.1h.1l.1.1v.2zM263 3.3c0 .1 0 .1-.1.1 0-.1 0-.1-.1-.2.2 0 .2 0 .2.1zm-2.5 1.8h-.1V5h.1v.1zm-1.4 7.8c-.1 0-.1 0-.1-.1.1 0 .1.1.1.1zm6.2 7.8l.1.1h-.1v-.1zm27-14.3c.1 0 .1 0 .2-.1h.1c0 .1 0 .1-.1.2-.1 0 0 0-.2.1v-.2zm2.1 1.9h.2v.2h-.2v-.2zm1.3-.7c0 .1 0 .1.1.1v.1h-.2l-.1-.2h.2zm3.8-5.2v.1c-.1 0-.1-.1-.2-.1h.2zm.6 55.9c0-.1.1-.1 0 0 .3 0 .3 0 .5.1.1-.1.1-.1.2-.1 0-.2 0-.2-.1-.3-.2 0-.3 0-.4.1h-.1c0-.2 0-.4.1-.6-.1 0-.3 0-.4-.1 0 .1 0 .2-.1.2s-.1 0-.2-.1c0 0 .2-.6.3-.7 0-.2 0-.2-.1-.3-.3 0-.4.2-.5.4h-.1c.1-.3.1-.5.4-.6 0-.3-.3-.7-.4-1l-.1-.1c-.1-.1-.2 0-.4.1h-.2c.1-.2.1-.2.3-.3 0-.2-.1-.2-.1-.4-.2.1-.1.1-.1.3h-.1l-.1-.1c0-.2 0-.2.1-.3-.1 0-.2-.1-.3-.2-.1 0-.1 0-.1-.1.1 0 .1-.1.3-.1l-.7-1.1s-.2.1-.4.3c-.2 0-.2-.1-.3-.2v-.2c.2 0 .6-.1.6-.1l-2.5-4.2h-.1c0 .1-.1.2-.1.2h-.3c.1-.1.4-.5.4-.5l-5.7-9.4-.5-.8c0-.1-.1-.1-.2-.2s-.1 0-.2.1h-.1c0-.1 0-.1-.1-.1.1 0 .1-.2.2-.2l-1.2-1.9-.4-.4-.2-.6s-.1-.2-.3-.5l-.1-.1v-.1l-.1-.1c-.1-.2-.2-.4-.3-.5v-.1l-.1-.1c-.3-.1-.7-.1-1-.2v-.2c.2.1.4.1.6.2l.2-.1-2.1-3.5 4.9-8.1.2-.2c0-.2-.1-.4-.2-.5v-.1c.2 0 .3.1.5.1l6.2-10.3.2-.4v-.2c-.1-.3-.3-.2-.5-.4h-.1v-.2c.3 0 .6.2.9.2l.3-.3.6-1 .8-1.4 2.4-4 .2-.4c0-.3-.2-.3-.3-.5.2-.1.5-.2.7-.3 0-.6-.4-.7-.6-1V.4h-15.3l-.1.1-2.6 5-1.3 2.6.3.2v.1c-.2 0-.4-.1-.4-.1l-1.5 2.9-3.1 5.9-6.4-12.4c-.1-.2-.2-.5-.3-.8-.1-.2-.3-.4-.4-.7l-1.6-3h-16.7l2 3.3.9 1.4 14.6 24.3-11 18-3 4.9-4.6 7.6h16.8l.3-.6.1-.2 9.4-17.6 5.3 10 .2.4 4.2 7.9h15.1v.4l-.1-.1s-.1-.1-.2-.1c0-.3.1-.4.3-.5V59c-.3-.1-.3-.1-.7-.1.1-.1.1-.2.2-.2.3 0 .4.1.6.3.2 0 .2 0 .2-.2l.1-.1c-.2-.1-.4-.3-.6-.4-.2 0-.1.1-.2 0zm-58.4-1.6h-.1v-.1h.1v.1zm-8.7 3c-.1 0-.1-.1-.2-.1 0-.1 0-.1-.1-.2.1.1.2.1.2.2v.1h.1zm-4.5-24.8c-.1 0-.1 0-.2-.1 0-.1 0-.2.1-.3.1.1.2.1.2.2s0 .2-.1.2zm-1.3-20.4c-.1.2-.1.1-.2.2h-.1c0-.2.1-.2.1-.4l.2.2zM223.9 38c-.1 0-.1 0-.2-.1 0 0 0-.1-.1-.1.1 0 .1 0 .3-.1v.3zm-.6-3.1c0-.2 0-.2.1-.3h.2l.1.1c0 .1 0 .2-.1.3-.1-.1-.2-.1-.3-.1zm-2-13.1c-.1-.1-.1-.1-.1-.2 0 0 .1 0 .1.1v.1zm-2.2-6.8c0 .1-.1.1-.1.2h-.2c0-.2.1-.3.1-.5.1.1.2.1.2.2v.1zm-.6 6.2c-.3 0-.5-.2-.6-.4.2.1.4.3.6.4zm-2.3 7.7c-.1 0 0 0-.1.1-.1-.1-.3-.2-.5-.3 0-.1 0 0-.1-.1l.2-.2c.2.1.3.2.5.3v.2zm-.7-1.4v-.2h.4l.1.1c0 .2 0 .3-.1.4h-.1c-.2-.1-.2-.2-.3-.3zm-.5.1c-.1 0 0 0-.1.1-.1 0 0 0-.1-.1v-.2c.1 0 .2 0 .3.1l-.1.1zm-.1-.6l-.2.1V27h.2zm-.3-18.1c-.3-.3-.6-.5-.6-1.1.5.1.5.7.8 1l-.1.1s0-.1-.1 0zm-.2 17.9h-.2c0-.1.1-.2.1-.2.1 0 .1.1.2.1 0 0 0 .1-.1.1zm-.9-21.2h-.4c0-.2.1-.2.2-.4.1 0 .1 0 .2.1v.3zm-.2 20.8v.1h-.1l-.1-.1v-.3h.2l.1.1-.1.2zm-1.8 28.9h-.2v-.2h.2l.1.1v.1h-.1zm-14 2.9c0 .1 0 0-.1.1-.1 0-.1 0-.1.1h-.1c0-.1.1-.2.1-.3h.1l.1.1zm15-54.1c-.1 0-.1 0-.1-.1.1 0 .2-.1.2-.1 0 .1 0 .1.1.2h-.2zM211.3 24c-.1 0-.1.1-.1-.1.1 0 0 0 .1.1 0-.1 0-.1 0 0zm-.2.2c-.1-.2-.2-.4-.2-.6.2.3.3.5.5.8-.2 0-.2-.1-.3-.2zm-4.9-18.8l-.1.1c.1-.4.3-.6.5-.9h.2c-.2.3-.3.6-.6.8zm30.2 8.8c.1 0 .1 0 .2.1l-.1.1v.1h-.1v-.3zm2.4-12.1c0 .1 0 .1-.1.2 0 0-.1 0-.1.1 0-.1 0-.1-.1-.2h.3v-.1zm4 2.2s.1 0 .1.1v.1h-.2c0-.1 0-.1.1-.2zm4.6 55l-.3-.5-.2-.2c-.1 0-.1 0-.2.1-.2-.1 0-.3-.1-.6 0-.1 0-.2-.1-.3l-.3-.5-.4-.6-8.4-13.8-2-3.4-2.1-3.5-1.3-2.2-1.7-2.8-.5-.8-.3-.5c0-.1-.1-.1-.2-.1v-.1l-.1-.1.1-.2v-.1c.1-.4.4-.7.6-1l1.6-2.6.7-1.2 3.4-5.7L238 15l8-13.3.5-.9.2-.4H230v.1l-.3.6-5.1 9.8-.6 1.2-2.1 4-.5.9v.2l-1.5-2.9-1.7-3.2-.4-.9-1.4-2.6-3-5.6-.1-.3-.5-1.1-.1-.2H196v.1l.2.4V1l.7 1.2c.1.2.2.3.3.5l.3.6 1.4 2.4 1.5 2.5 2.5 4.2 9.2 15.4.9 1.6.1.1.1.1-.2.2-1 1.7-5.4 8.8-7.5 12.3-3.6 5.8-.2.3-.8 1.3-.1.1h16.8l.6-1.2 3.8-7.1 2.8-5.2 1.1-2.1.7-1.4.3-.7.4-.7 3.3 6.1 3.1 5.8v.1c.2.4.4.7.6 1 .1.2.2.3.2.5l.2.4 2.4 4.4h16.7l-.1-.1.1-.6z" fill="#fff"/></svg>